<?xml version="1.0" encoding="UTF-8"?>
<svg enable-background="new 0 0 209.2 209.2" version="1.1" viewBox="0 0 209.2 209.2" xml:space="preserve" xmlns="http://www.w3.org/2000/svg" xmlns:xlink="http://www.w3.org/1999/xlink">
<style type="text/css">
	.st0{clip-path:url(#e);fill:url(#d);}
	.st1{fill:#FFFFFF;}
	.st2{fill:#848483;}
	.st3{fill:#5F5E5E;}
	.st4{fill:#959594;}
	.st5{fill:#C1442F;}
	.st6{fill:#D98A71;}
	.st7{fill:#B5B5B5;}
	.st8{fill:#CA5C44;}
	.st9{fill:#E2A28C;}
	.st10{fill:#B20E10;}
	.st11{fill:#D2735A;}
	.st12{clip-path:url(#b);fill:url(#a);}
	.st13{fill:#6C6B6B;}
</style>
	<defs>
		<path id="f" d="m0.6 104.6c0 57.4 46.5 103.9 103.9 103.9s103.9-46.5 103.9-103.9-46.5-103.9-103.9-103.9-103.9 46.5-103.9 103.9"/>
	</defs>
	<clipPath id="e">
		<use xlink:href="#f"/>
	</clipPath>
		<radialGradient id="d" cx="-269.96" cy="954.09" r="3.0598" gradientTransform="matrix(33.965 0 0 -33.965 9273.8 32510)" gradientUnits="userSpaceOnUse">
		<stop stop-color="#E9E9E9" offset="0"/>
		<stop stop-color="#ECEBEB" offset=".7566"/>
		<stop stop-color="#EFEEEE" offset="1"/>
	</radialGradient>
	<rect class="st0" x=".6" y=".7" width="207.9" height="207.8"/>
<path class="st1" d="m197.6 104.3c0 51.4-41.7 93.1-93.1 93.1s-93.1-41.7-93.1-93.1 41.6-93.2 93-93.2c51.5 0 93.2 41.7 93.2 93.2"/>
<path class="st2" d="m121.1 31.6c0-12.6-5.7-22.8-12.7-22.8-1.8 0-3.4 0.7-5 1.8 4.4 3.7 7.5 11.7 7.5 21s-3.1 17.2-7.5 21c1.5 1.2 3.2 1.8 5 1.8 7-0.1 12.7-10.3 12.7-22.8"/>
<path class="st3" d="m120.8 31.6c0 6-1.3 11.7-3.7 15.9-2.3 4-5.3 6.3-8.4 6.3s-6.1-2.2-8.4-6.3c-2.4-4.2-3.7-9.9-3.7-15.9s1.3-11.7 3.7-15.9c2.3-4 5.2-6.3 8.4-6.3 3.1 0 6.1 2.2 8.4 6.3 2.3 4.2 3.7 9.8 3.7 15.9m0.7 0c0-12.8-5.9-23.2-13.1-23.2s-13.1 10.4-13.1 23.2 5.9 23.2 13.1 23.2c7.3 0 13.1-10.4 13.1-23.2"/>
<path class="st4" d="m113.5 59.7c12.6 0 22.8-5.7 22.8-12.7 0-1.8-0.6-3.4-1.8-5-3.7 4.4-11.7 7.5-21 7.5s-17.2-3.1-21-7.5c-1.2 1.5-1.8 3.2-1.8 5 0.1 7 10.3 12.7 22.8 12.7"/>
<path class="st5" d="m90.8 47c0-7 10.2-12.7 22.8-12.7s22.8 5.7 22.8 12.7h0.4v-12.2c0-7.2-10.4-13.1-23.2-13.1s-23.2 5.9-23.2 13.1v12.2h0.4z"/>
<path class="st3" d="m113.5 59.4c-6 0-11.7-1.3-15.9-3.7-4-2.3-6.3-5.3-6.3-8.4s2.2-6.1 6.3-8.4c4.2-2.4 9.9-3.7 15.9-3.7s11.7 1.3 15.9 3.7c4 2.3 6.3 5.2 6.3 8.4 0 3.1-2.2 6.1-6.3 8.4-4.2 2.4-9.8 3.7-15.9 3.7m0 0.8c12.8 0 23.2-5.9 23.2-13.1s-10.4-13.1-23.2-13.1-23.2 5.9-23.2 13.1 10.4 13.1 23.2 13.1"/>
<path class="st6" d="m119.6 23.6c9.1 2.4 15.4 8.3 17.2 14v-2.8c0-7.2-10.4-13.1-23.2-13.1-2.1 0-4.1 0.2-6 0.4 3.7-0.1 7.8 0.4 12 1.5"/>
<path class="st7" d="m95.4 32.1c12.6 0 22.8 5.7 22.8 12.7 0 1.8-0.6 3.4-1.8 5-3.7-4.4-11.7-7.5-21-7.5s-17.2 3.1-21 7.5c-1.2-1.5-1.8-3.2-1.8-5 0-7 10.2-12.7 22.8-12.7"/>
<path class="st8" d="m72.5 44.4c0 7 10.2 12.7 22.8 12.7 12.5 0 22.7-5.7 22.7-12.7h0.4v12.2c0 7.2-10.4 13.1-23.2 13.1s-23.2-5.9-23.2-13.1v-12.2h0.5z"/>
<path class="st9" d="m89.3 67.9c-9.2-2.4-15.4-8.3-17.2-14v2.7c0 7.2 10.4 13.1 23.2 13.1 2.1 0 4.1-0.2 6-0.4-3.8 0.1-7.9-0.3-12-1.4"/>
<path class="st3" d="m111.2 36.2c4 2.3 6.3 5.3 6.3 8.4s-2.2 6.1-6.3 8.4c-4.2 2.4-9.9 3.7-15.9 3.7s-11.7-1.3-15.9-3.7c-4-2.3-6.3-5.3-6.3-8.4s2.2-6.1 6.3-8.4c4.2-2.4 9.9-3.7 15.9-3.7s11.7 1.3 15.9 3.7m-15.9-4.5c-12.8 0-23.2 5.9-23.2 13.1s10.4 13.1 23.2 13.1 23.2-5.9 23.2-13.1c0-4.4-3.8-8.2-9.6-10.6-3.8-1.6-8.5-2.5-13.6-2.5"/>
<path class="st10" d="m108.4 54.3c-7 0-12.7-10.2-12.7-22.8s5.7-22.8 12.7-22.8v-0.4h-12.2c-7.2 0-13.1 10.4-13.1 23.2s5.9 23.2 13.1 23.2h12.2v-0.4z"/>
<path class="st11" d="m85 25.5c2.4-9.1 8.3-15.4 14-17.2h-2.8c-7.2 0-13.1 10.4-13.1 23.2 0 2.1 0.2 4.1 0.5 6-0.2-3.7 0.3-7.8 1.4-12"/>
<path class="st3" d="m118.2 45.2c-0.3 0.8-0.7 1.6-1.1 2.3-2.3 4-5.2 6.3-8.4 6.3-3.1 0-6.1-2.2-8.4-6.3-2.4-4.2-3.7-9.9-3.7-15.9s1.3-11.7 3.7-15.9c2.3-4 5.2-6.3 8.4-6.3h0.4v-1h-0.7c-7.2 0-13.1 10.4-13.1 23.2s5.9 23.2 13.1 23.2c4.4 0 8.2-3.8 10.6-9.6h-0.8"/>
<path class="st3" d="m110.4 34.9c-0.1 0.2-0.3 0.5-0.4 0.7 0.4 0.2 0.7 0.4 1 0.5 4 2.3 6.3 5.3 6.3 8.4s-2.2 6.1-6.3 8.4c-3.1 1.7-6.9 2.9-11 3.4 0.7 0.4 1.3 0.7 2 1 9.4-1.7 16.3-6.6 16.3-12.5 0.1-4-3-7.5-7.9-9.9"/>
	<defs>
		<path id="c" d="m121.8 20.3c10.3 1.8 17.7 7.2 17.7 13.6v13.3c0 7-9 12.8-20.7 14-2.3 5-9.2 8.9-17.9 10.2h0.1 0.1c-0.2 0-0.4 0-0.6 0.1-0.7 0.1-1.3 0.2-2 0.2-0.3 0-0.6 0.1-1 0.1-1 0.1-1.9 0.1-2.9 0.1h-0.1c-13.9 0-25.2-6.4-25.2-14.3v-13.2c0.3-5 5-9.3 12-11.7v-0.6-1.7c0-5.3 0.9-10.2 2.5-14.3-40 9.4-69.7 45.2-69.7 88 0 49.9 40.5 90.4 90.4 90.4s90.4-40.5 90.4-90.4c0-44.6-32.3-81.7-74.8-89.1 0.7 1.7 1.3 3.4 1.7 5.3"/>
	</defs>
	<clipPath id="b">
		<use xlink:href="#c"/>
	</clipPath>
		<radialGradient id="a" cx="-272.57" cy="957.17" r="3.0598" gradientTransform="matrix(29.447 0 0 -29.447 8130.8 28290)" gradientUnits="userSpaceOnUse">
		<stop stop-color="#E9E9E9" offset="0"/>
		<stop stop-color="#E6E6E6" offset=".3434"/>
		<stop stop-color="#DEDEDE" offset=".5635"/>
		<stop stop-color="#CFCFCF" offset=".7487"/>
		<stop stop-color="#BABABA" offset=".9139"/>
		<stop stop-color="#ACACAC" offset="1"/>
	</radialGradient>
	<rect class="st12" x="14" y="15.1" width="180.9" height="179.5"/>
<path class="st3" d="m79.6 135.6c-0.3 0.3-0.9 0.3-1.2 0.1-0.6-2.3-2.3-5.3-7.1-5.3-4.6 0-9.3 3.3-9.3 10.8 0 7.8 4.9 11.6 9.6 11.6 4.6 0 6.6-3.1 7.6-5.4 0.3-0.3 0.9-0.2 1.1 0.1-0.3 2.4-1.2 4.9-1.8 5.6-0.4 0.1-0.9 0.2-1.3 0.3-0.8 0.3-3.3 0.9-5.7 0.9-3.6 0-6.7-0.7-9.4-2.4-3-1.9-5.2-5.3-5.2-10.1 0-4.3 1.9-7.6 4.6-9.7 2.7-2 6.4-3.1 10.1-3.1 2.1 0 4.6 0.4 6.3 0.8 0.4 0.1 0.7 0.1 1 0.2 0.3 0.8 0.4 2.9 0.7 5.6"/>
<path class="st2" d="m85.2 134.8c0-3.9-0.3-4-2-4.2l-0.6-0.1c-0.3-0.3-0.2-0.9 0.1-1.1 1.4 0.1 3.1 0.1 4.7 0.1h7c2.3 0 4.5 0 4.9-0.1 0.1 0.6 0.4 3.5 0.6 5.1-0.1 0.3-0.9 0.4-1.2 0.1-0.6-2.1-1.1-3-2.3-3.3-0.8-0.2-1.9-0.3-2.9-0.3h-2.4c-1.6 0-1.6 0.1-1.6 2.2v6.2c0 1 0 1 0.9 1h1.8c3.2 0 3.7 0 4.1-1.6l0.3-1.2c0.3-0.3 1-0.3 1.2 0 0 1-0.1 2.3-0.1 3.7s0.1 2.7 0.1 3.8c-0.2 0.3-0.9 0.3-1.2 0l-0.3-1.5c-0.3-1.5-0.9-1.6-4.1-1.6h-1.8c-0.8 0-0.9 0.1-0.9 1v4.7c0 1.9 0.1 3.2 0.6 3.8 0.4 0.5 1.1 0.8 4.1 0.8 4.6 0 5.4-1 6.7-4 0.3-0.3 0.9-0.1 1.2 0.2-0.2 1.5-1 4.3-1.5 5.3-1.6-0.1-4.8-0.1-9-0.1h-4.2c-1.6 0-3.8 0-5.5 0.1-0.3-0.1-0.3-0.8-0.1-1.1l1.3-0.1c1.7-0.2 2-0.3 2-4.2v-13.6z"/>
<path class="st3" d="m106.4 135c0-3.3 0-3.9-1.6-4.1l-1.3-0.1c-0.3-0.3-0.3-0.9 0-1 2.6-0.3 4.8-0.3 8.1-0.3 3.5 0 6 0.5 7.7 1.5 1.9 1.1 3.1 3.1 3.1 5.5 0 5.6-5.3 7.1-8.2 7.1h-0.9c-0.3-0.2-0.3-0.7-0.1-0.9 3.3-0.7 4.5-3.1 4.5-6.1s-1.9-5.6-5.2-5.6c-1.8 0-1.9 0.1-1.9 1.5v16c0 3.9 0.3 4 2 4.2l1.4 0.1c0.2 0.3 0.2 0.9-0.1 1.1-2.2-0.1-3.8-0.1-5.4-0.1s-3.2 0-4.7 0.1c-0.3-0.1-0.3-0.8-0.1-1.1l0.6-0.1c1.7-0.2 2-0.4 2-4.2v-13.5z"/>
<path class="st3" d="m133.7 141.9c-1.9 0-2 0.1-2 1.1v5.4c0 3.9 0.3 3.9 2.1 4.2l1.1 0.1c0.3 0.3 0.2 0.9-0.1 1.1-1.9-0.1-3.5-0.1-5.2-0.1-1.6 0-3.3 0-4.6 0.1-0.3-0.1-0.3-0.8-0.1-1.1l0.5-0.1c1.7-0.3 2-0.4 2-4.2v-13.6c0-3.9-0.3-4-2-4.2l-0.8-0.1c-0.3-0.2-0.2-0.9 0.1-1.1 1.6 0.1 3.3 0.1 4.9 0.1s3.3 0 4.7-0.1c0.3 0.1 0.3 0.9 0.1 1.1l-0.6 0.1c-1.7 0.3-2.1 0.3-2.1 4.2v4.4c0 1 0.1 1.1 2 1.1h8.6c1.9 0 2-0.1 2-1.1v-4.4c0-3.9-0.3-4-2.1-4.2l-0.8-0.1c-0.3-0.2-0.2-0.9 0.1-1.1 1.7 0.1 3.3 0.1 4.9 0.1s3.3 0 4.7-0.1c0.3 0.1 0.3 0.9 0.1 1.1l-0.7 0.1c-1.7 0.3-2.1 0.3-2.1 4.2v13.6c0 3.9 0.3 4 2.1 4.2l0.8 0.1c0.3 0.3 0.2 0.9-0.1 1.1-1.6-0.1-3.3-0.1-4.9-0.1-1.7 0-3.3 0-4.9 0.1-0.3-0.1-0.3-0.8-0.1-1.1l0.8-0.1c1.7-0.2 2.1-0.3 2.1-4.2v-5.4c0-1-0.1-1.1-2-1.1h-8.5z"/>
<path class="st3" d="m64.3 165.2c-0.1-0.3-0.2-0.4-0.6-0.4h-2.2c-0.4 0-0.4 0-0.5 0.3l-0.5 1.5c-0.2 0.6-0.3 1-0.3 1.2s0.1 0.3 0.4 0.3h0.5c0.1 0.1 0.1 0.3 0 0.4h-1.5-1.4c-0.1-0.1-0.1-0.3 0-0.4h0.5c0.3 0 0.7-0.2 0.9-0.7 0.3-0.7 0.7-1.6 1.3-3.2l1.5-3.9c0.2-0.5 0.3-0.8 0.2-1 0.3-0.1 0.6-0.4 0.7-0.5 0.1 0 0.2 0 0.2 0.1 0.2 0.6 0.4 1.3 0.6 1.9l2 5.7c0.4 1.2 0.6 1.4 1.2 1.5h0.4c0.1 0.1 0.1 0.3 0 0.4h-1.7-1.6c-0.1-0.1-0.1-0.3 0-0.4h0.4c0.3 0 0.5-0.1 0.5-0.3s-0.1-0.4-0.2-0.8l-0.8-1.7zm-2.9-1.2c-0.1 0.3-0.1 0.3 0.3 0.3h1.8c0.4 0 0.4-0.1 0.3-0.4l-0.8-2.3c-0.1-0.3-0.2-0.7-0.3-0.9 0 0.1-0.2 0.4-0.3 0.8l-1 2.5z"/>
<path class="st3" d="m69.6 160.1c1-0.8 2.4-1.2 3.9-1.2 0.8 0 1.9 0.2 2.5 0.3 0.2 0 0.3 0.1 0.4 0.1 0 0.3 0.1 1.2 0.2 2.1-0.1 0.1-0.3 0.1-0.4 0-0.2-1-0.9-2.1-2.9-2.1-2.2 0-4 1.4-4 4.3 0 3 1.9 4.7 4.2 4.7 1.8 0 2.7-1.2 3-2 0.1-0.1 0.3 0 0.4 0.1-0.1 0.7-0.5 1.7-0.7 2-0.2 0-0.3 0.1-0.5 0.1-0.3 0.1-1.3 0.3-2.3 0.3-1.3 0-2.5-0.2-3.6-1s-2-2.1-2-3.9c0-1.6 0.7-3 1.8-3.8"/>
<path class="st3" d="m79.8 160.1c1-0.8 2.4-1.2 3.9-1.2 0.8 0 1.9 0.2 2.5 0.3 0.2 0 0.3 0.1 0.4 0.1 0 0.3 0.1 1.2 0.2 2.1-0.1 0.1-0.3 0.1-0.4 0-0.2-1-0.9-2.1-2.9-2.1-2.2 0-4 1.4-4 4.3 0 3 1.9 4.7 4.2 4.7 1.8 0 2.7-1.2 3-2 0.1-0.1 0.3 0 0.4 0.1-0.1 0.7-0.5 1.7-0.7 2-0.2 0-0.3 0.1-0.5 0.1-0.3 0.1-1.3 0.3-2.3 0.3-1.3 0-2.5-0.2-3.6-1s-2-2.1-2-3.9c0-1.6 0.8-3 1.8-3.8"/>
<path class="st3" d="m89.5 161.3c0-1.4 0-1.6-0.6-1.7l-0.5-0.1c-0.1-0.1-0.1-0.3 0-0.4 0.8-0.1 1.8-0.1 3.2-0.1 0.9 0 1.7 0.1 2.4 0.4 0.7 0.4 1.2 1 1.2 2 0 1.4-1.1 2.1-1.8 2.4-0.1 0.1 0 0.2 0.1 0.3 1.1 1.8 1.9 3 2.9 3.8 0.2 0.2 0.6 0.4 1 0.4 0.1 0 0.1 0.1 0 0.2-0.1 0-0.4 0.1-0.6 0.1-1.2 0-1.9-0.4-3-1.8-0.4-0.5-1-1.5-1.4-2.2-0.2-0.3-0.4-0.5-1-0.5s-0.7 0-0.7 0.3v1.8c0 1.5 0 1.7 0.9 1.8h0.3c0.1 0.1 0.1 0.3 0 0.4h-1.7-1.8c-0.1 0-0.1-0.3 0-0.4h0.4c0.8-0.1 0.9-0.3 0.9-1.8v-4.9zm1.1 2v0.5s0.3 0.1 1 0.1c0.5 0 1.1-0.1 1.5-0.4s0.7-0.8 0.7-1.8c0-1.1-0.7-2.2-2.3-2.2-0.9 0-0.9 0.1-0.9 0.5v3.3z"/>
<path class="st3" d="m99.6 161.3c0-1.5 0-1.7-0.9-1.8h-0.2c-0.1-0.1-0.1-0.3 0-0.4h1.7 2.7 1.9c0.1 0.2 0.2 1.3 0.2 1.9-0.1 0.1-0.3 0.1-0.4 0-0.2-0.7-0.4-1.2-1.1-1.4-0.3-0.1-0.8-0.1-1.4-0.1h-1c-0.4 0-0.4 0-0.4 0.6v2.9c0 0.4 0 0.4 0.5 0.4h0.8c0.6 0 1 0 1.2-0.1s0.3-0.1 0.3-0.5l0.1-0.6c0.1-0.1 0.3-0.1 0.4 0 0 0.3-0.1 0.9-0.1 1.4s0.1 1.1 0.1 1.4c-0.1 0.1-0.3 0.1-0.4 0l-0.1-0.6c-0.1-0.3-0.2-0.5-0.4-0.5-0.2-0.1-0.5-0.1-1.1-0.1h-0.8c-0.4 0-0.5 0-0.5 0.4v2c0 0.8 0 1.2 0.3 1.5 0.2 0.2 0.5 0.3 1.7 0.3 1.1 0 1.5-0.1 1.8-0.2s0.6-0.6 1-1.4c0.1-0.1 0.3 0 0.4 0.1-0.1 0.5-0.5 1.6-0.6 2h-3.8-1.3-1.9c-0.1 0-0.1-0.3 0-0.4h0.5c0.8-0.1 0.9-0.3 0.9-1.8v-5z"/>
<path class="st3" d="m108.3 161c0-1-0.1-1.3-0.7-1.4h-0.3c-0.1-0.1-0.1-0.3 0-0.4 1.2-0.1 2.4-0.1 3.6-0.1s2.2 0.1 3.1 0.4c1.9 0.7 2.9 2.3 2.9 4.2 0 1.8-0.9 3.4-2.5 4.3-0.9 0.5-2.1 0.7-3.2 0.7-0.9 0-1.8-0.1-2.3-0.1h-1.8c-0.1 0-0.1-0.3 0-0.4h0.3c0.8-0.1 0.9-0.3 0.9-1.8v-5.4zm1.2 5.1c0 0.8 0 1.2 0.3 1.6s0.9 0.6 1.8 0.6c2.8 0 4-1.8 4-4.5 0-1.6-0.8-4.2-4.5-4.2-0.8 0-1.3 0.1-1.4 0.2s-0.1 0.4-0.1 1.1v5.2z"/>
<path class="st3" d="m119.4 161.3c0-1.5 0-1.8-0.9-1.8h-0.4c-0.1-0.1-0.1-0.3 0-0.4h1.8 1.8c0.1 0 0.1 0.3 0 0.4h-0.4c-0.8 0.1-0.9 0.3-0.9 1.8v5.1c0 1.5 0 1.7 0.9 1.8h0.4c0.1 0.1 0 0.3 0 0.4h-1.8-1.8c-0.1 0-0.1-0.3 0-0.4h0.4c0.8-0.1 0.9-0.3 0.9-1.8v-5.1z"/>
<path class="st3" d="m128.1 166.4c0 1.5 0 1.7 0.9 1.8h0.5c0.1 0.1 0.1 0.3 0 0.4h-1.9-2c-0.1 0-0.1-0.3 0-0.4h0.5c0.8-0.1 0.9-0.3 0.9-1.8v-6.4c0-0.4 0-0.5-0.4-0.5h-0.8c-0.6 0-1.4 0-1.8 0.4-0.3 0.3-0.5 0.6-0.6 1-0.1 0.1-0.3 0-0.4-0.1 0.2-0.6 0.4-1.6 0.5-2.1h0.3c0.1 0.5 0.6 0.4 1.2 0.4h5.8c0.8 0 0.9 0 1.1-0.4h0.3c-0.2 0.6-0.3 1.7-0.2 2.2-0.1 0.1-0.3 0.1-0.4 0 0-0.4-0.1-0.9-0.4-1-0.3-0.2-0.9-0.4-1.7-0.4h-1c-0.4 0-0.4 0-0.4 0.5v6.4z"/>
<path class="st3" d="m134.6 161.3c0-1.5 0-1.7-0.9-1.8h-0.2c-0.1-0.1-0.1-0.3 0-0.4h1.7 2.7 1.9c0.1 0.2 0.2 1.3 0.2 1.9-0.1 0.1-0.3 0.1-0.4 0-0.2-0.7-0.4-1.2-1.1-1.4-0.3-0.1-0.8-0.1-1.4-0.1h-1c-0.4 0-0.4 0-0.4 0.6v2.9c0 0.4 0 0.4 0.5 0.4h0.8c0.6 0 1 0 1.2-0.1s0.3-0.1 0.3-0.5l0.1-0.6c0.1-0.1 0.3-0.1 0.4 0 0 0.3-0.1 0.9-0.1 1.4s0.1 1.1 0.1 1.4c-0.1 0.1-0.3 0.1-0.4 0l-0.1-0.6c-0.1-0.3-0.2-0.5-0.4-0.5-0.2-0.1-0.5-0.1-1.1-0.1h-0.8c-0.4 0-0.5 0-0.5 0.4v2c0 0.8 0 1.2 0.3 1.5 0.2 0.2 0.5 0.3 1.7 0.3 1.1 0 1.5-0.1 1.8-0.2s0.6-0.6 1-1.4c0.1-0.1 0.3 0 0.4 0.1-0.1 0.5-0.4 1.6-0.6 2h-3.8-1.3-1.9c-0.1 0-0.1-0.3 0-0.4h0.5c0.8-0.1 0.9-0.3 0.9-1.8v-5z"/>
<path class="st3" d="m143.3 161c0-1-0.1-1.3-0.7-1.4h-0.3c-0.1-0.1-0.1-0.3 0-0.4 1.2-0.1 2.4-0.1 3.6-0.1s2.2 0.1 3.1 0.4c1.9 0.7 2.9 2.3 2.9 4.2 0 1.8-0.9 3.4-2.5 4.3-0.9 0.5-2.1 0.7-3.2 0.7-0.9 0-1.8-0.1-2.3-0.1h-1.8c-0.1 0-0.1-0.3 0-0.4h0.3c0.8-0.1 0.9-0.3 0.9-1.8v-5.4zm1.2 5.1c0 0.8 0 1.2 0.3 1.6s0.9 0.6 1.8 0.6c2.8 0 4-1.8 4-4.5 0-1.6-0.8-4.2-4.5-4.2-0.8 0-1.3 0.1-1.4 0.2s-0.1 0.4-0.1 1.1v5.2z"/>
<polygon class="st13" points="55.3 92.6 59.7 92.6 62.8 100.6 62.8 100.6 65.8 92.6 70.2 92.6 70.2 104.9 67.3 104.9 67.3 95.5 67.3 95.5 63.8 104.9 61.6 104.9 58.3 95.5 58.2 95.5 58.2 104.9 55.3 104.9"/>
<path class="st13" d="m78.4 92.6h2.4l5.7 12.3h-3.3l-1.1-2.6h-5.1l-1.1 2.6h-3.2l5.7-12.3zm1.1 3.6l-1.6 3.8h3.2l-1.6-3.8z"/>
<path class="st13" d="m95.7 95.6c-0.5-0.6-1.4-0.8-2.1-0.8-0.8 0-2 0.3-2 1.3 0 2.2 6.1 0.8 6.1 5.1 0 2.7-2.4 4-5.1 4-1.7 0-3.2-0.5-4.4-1.5l2.1-2.1c0.6 0.7 1.6 1.2 2.5 1.2 1 0 2-0.4 2-1.3 0-2.3-6.2-1-6.2-5.1 0-2.6 2.4-4 5-4 1.5 0 2.9 0.4 4 1.3l-1.9 1.9z"/>
<polygon class="st13" points="103.7 95 99.9 95 99.9 92.6 110.4 92.6 110.4 95 106.6 95 106.6 104.9 103.7 104.9"/>
<polygon class="st13" points="112.9 92.6 121.9 92.6 121.9 95.1 115.8 95.1 115.8 97.4 121.6 97.4 121.6 99.9 115.8 99.9 115.8 102.4 122.2 102.4 122.2 104.9 112.9 104.9"/>
<path class="st13" d="m125.6 92.6h5.1c2.7 0 5 0.9 5 3.7 0 1.7-1 3.1-2.9 3.4l3.4 5.2h-3.5l-2.7-4.9h-1.4v4.9h-2.9v-12.3zm2.9 5.1h1.7c1.1 0 2.4 0 2.4-1.4 0-1.2-1.2-1.4-2.3-1.4h-1.9v2.8z"/>
<polygon class="st13" points="140.8 97.5 138.4 97.5 139.8 92.6 142.4 92.6"/>
<path class="st13" d="m152.1 95.6c-0.5-0.6-1.4-0.8-2.1-0.8-0.8 0-2 0.3-2 1.3 0 2.2 6.1 0.8 6.1 5.1 0 2.7-2.4 4-5.1 4-1.7 0-3.2-0.5-4.4-1.5l2.1-2.1c0.6 0.7 1.6 1.2 2.5 1.2s2-0.4 2-1.3c0-2.3-6.2-1-6.2-5.1 0-2.6 2.4-4 5-4 1.5 0 2.9 0.4 4 1.3l-1.9 1.9z"/>
<path class="st1" d="m173.5 112.5h-138.1c-0.6 0-1-0.5-1-1s0.5-1 1-1h138.1c0.6 0 1 0.5 1 1s-0.4 1-1 1"/>
<path class="st1" d="m173.5 85.8h-138.1c-0.6 0-1-0.5-1-1 0-0.6 0.5-1 1-1h138.1c0.6 0 1 0.5 1 1 0 0.6-0.4 1-1 1"/>
</svg>
