<?xml version="1.0" encoding="UTF-8"?>
<svg enable-background="new 0 0 268 59.5" version="1.1" viewBox="0 0 268 59.5" xml:space="preserve" xmlns="http://www.w3.org/2000/svg" xmlns:xlink="http://www.w3.org/1999/xlink">
<style type="text/css">
	.st0{clip-path:url(#bz);fill:#2B2422;}
	.st1{clip-path:url(#bd);fill:none;stroke:#2B2422;stroke-width:0.442;}
	.st2{clip-path:url(#ah);fill:#2B2422;}
	.st3{clip-path:url(#l);fill:none;stroke:#2B2422;stroke-width:0.442;}
	.st4{clip-path:url(#ih);fill:#2B2422;}
	.st5{clip-path:url(#hl);fill:none;stroke:#2B2422;stroke-width:0.442;}
	.st6{clip-path:url(#gp);fill:#2B2422;}
	.st7{clip-path:url(#ft);fill:none;stroke:#2B2422;stroke-width:0.442;}
	.st8{clip-path:url(#ex);fill:#2B2422;}
	.st9{clip-path:url(#ea);fill:none;stroke:#2B2422;stroke-width:0.442;}
	.st10{clip-path:url(#de);fill:#2B2422;}
	.st11{clip-path:url(#ci);fill:none;stroke:#2B2422;stroke-width:0.442;}
	.st12{clip-path:url(#cd);fill:#2B2422;}
	.st13{clip-path:url(#cb);fill:none;stroke:#2B2422;stroke-width:0.442;}
	.st14{clip-path:url(#by);fill:#2B2422;}
	.st15{clip-path:url(#bw);fill:none;stroke:#2B2422;stroke-width:0.442;}
	.st16{clip-path:url(#bu);fill:#2B2422;}
	.st17{clip-path:url(#bs);fill:none;stroke:#2B2422;stroke-width:0.442;}
	.st18{clip-path:url(#bq);fill:#2B2422;}
	.st19{clip-path:url(#bn);fill:none;stroke:#2B2422;stroke-width:0.442;}
	.st20{clip-path:url(#bl);fill:#2B2422;}
	.st21{clip-path:url(#bj);fill:none;stroke:#2B2422;stroke-width:0.442;}
	.st22{clip-path:url(#bh);fill:#2B2422;}
	.st23{clip-path:url(#bf);fill:none;stroke:#2B2422;stroke-width:0.442;}
	.st24{clip-path:url(#bc);fill:#2B2422;}
	.st25{clip-path:url(#ba);fill:none;stroke:#2B2422;stroke-width:0.442;}
	.st26{clip-path:url(#ay);fill:#2B2422;}
	.st27{clip-path:url(#aw);fill:none;stroke:#2B2422;stroke-width:0.442;}
	.st28{clip-path:url(#au);fill:#2B2422;}
	.st29{clip-path:url(#ar);fill:none;stroke:#2B2422;stroke-width:0.442;}
	.st30{clip-path:url(#ap);fill:#2B2422;}
	.st31{clip-path:url(#an);fill:none;stroke:#2B2422;stroke-width:0.442;}
	.st32{clip-path:url(#al);fill:#2B2422;}
	.st33{clip-path:url(#aj);fill:none;stroke:#2B2422;stroke-width:0.442;}
	.st34{clip-path:url(#ag);fill:#2B2422;}
	.st35{clip-path:url(#ae);fill:none;stroke:#2B2422;stroke-width:0.442;}
	.st36{clip-path:url(#ac);fill:#2B2422;}
	.st37{clip-path:url(#aa);fill:none;stroke:#2B2422;stroke-width:0.442;}
	.st38{clip-path:url(#y);fill:#2B2422;}
	.st39{clip-path:url(#v);fill:none;stroke:#2B2422;stroke-width:0.442;}
	.st40{clip-path:url(#t);fill:#2B2422;}
	.st41{clip-path:url(#r);fill:none;stroke:#2B2422;stroke-width:0.442;}
	.st42{clip-path:url(#p);fill:#FFFFFF;}
	.st43{clip-path:url(#n);fill:#FFFFFF;}
	.st44{clip-path:url(#k);fill:none;stroke:#B21830;stroke-width:0.378;}
	.st45{clip-path:url(#i);fill:#FFFFFF;}
	.st46{clip-path:url(#g);fill:none;stroke:#B21830;stroke-width:0.192;}
	.st47{clip-path:url(#e);fill:#1C1C1B;}
	.st48{clip-path:url(#c);fill:#1C1C1B;}
	.st49{clip-path:url(#ir);fill:#1C1C1B;}
	.st50{clip-path:url(#ip);fill:#1C1C1B;}
	.st51{clip-path:url(#in);fill:#1C1C1B;}
	.st52{clip-path:url(#il);fill:#1C1C1B;}
	.st53{clip-path:url(#ij);fill:#1C1C1B;}
	.st54{clip-path:url(#ig);fill:#1C1C1B;}
	.st55{clip-path:url(#ie);fill:#1C1C1B;}
	.st56{clip-path:url(#ic);fill:#1C1C1B;}
	.st57{clip-path:url(#ia);fill:#1C1C1B;}
	.st58{clip-path:url(#hy);fill:#1C1C1B;}
	.st59{clip-path:url(#hv);fill:#1C1C1B;}
	.st60{clip-path:url(#ht);fill:#1C1C1B;}
	.st61{clip-path:url(#hr);fill:#1C1C1B;}
	.st62{clip-path:url(#hp);fill:#1C1C1B;}
	.st63{clip-path:url(#hn);fill:#1C1C1B;}
	.st64{clip-path:url(#hk);fill:#1C1C1B;}
	.st65{clip-path:url(#hi);fill:#1C1C1B;}
	.st66{clip-path:url(#hg);fill:#1C1C1B;}
	.st67{clip-path:url(#he);fill:#1C1C1B;}
	.st68{clip-path:url(#hc);fill:#1C1C1B;}
	.st69{clip-path:url(#gz);fill:#1C1C1B;}
	.st70{clip-path:url(#gx);fill:#1C1C1B;}
	.st71{clip-path:url(#gv);fill:#1C1C1B;}
	.st72{clip-path:url(#gt);fill:#1C1C1B;}
	.st73{clip-path:url(#gr);fill:#1C1C1B;}
	.st74{clip-path:url(#go);fill:#1C1C1B;}
	.st75{clip-path:url(#gm);fill:#1C1C1B;}
	.st76{clip-path:url(#gk);fill:#1C1C1B;}
	.st77{clip-path:url(#gi);fill:#1C1C1B;}
	.st78{clip-path:url(#gg);fill:#1C1C1B;}
	.st79{clip-path:url(#gd);fill:#2B2422;}
	.st80{clip-path:url(#gb);fill:#2B2422;}
	.st81{clip-path:url(#fz);fill:#B21830;}
	.st82{clip-path:url(#fx);fill:#B21830;}
	.st83{clip-path:url(#fv);fill:none;stroke:#FFFFFF;stroke-width:0.567;}
	.st84{clip-path:url(#fs);fill:#FFFFFF;}
	.st85{clip-path:url(#fq);fill:none;stroke:#2B2422;stroke-width:0.378;}
	.st86{clip-path:url(#fo);fill:#B21830;}
	.st87{clip-path:url(#fm);fill:none;stroke:#B21830;stroke-width:0.133;}
	.st88{clip-path:url(#fk);fill:#B21830;}
	.st89{clip-path:url(#fh);fill:none;stroke:#B21830;stroke-width:0.133;}
	.st90{clip-path:url(#ff);fill:#B21830;}
	.st91{clip-path:url(#fd);fill:none;stroke:#B21830;stroke-width:0.133;}
	.st92{clip-path:url(#fb);fill:#B21830;}
	.st93{clip-path:url(#ez);fill:none;stroke:#B21830;stroke-width:0.133;}
	.st94{clip-path:url(#ew);fill:#B21830;}
	.st95{clip-path:url(#eu);fill:none;stroke:#B21830;stroke-width:0.133;}
	.st96{clip-path:url(#es);fill:#B21830;}
	.st97{clip-path:url(#eq);fill:none;stroke:#B21830;stroke-width:0.133;}
	.st98{clip-path:url(#eo);fill:#B21830;}
	.st99{clip-path:url(#ek);fill:none;stroke:#B21830;stroke-width:0.133;}
	.st100{clip-path:url(#ei);fill:#B21830;}
	.st101{clip-path:url(#eg);fill:none;stroke:#B21830;stroke-width:0.133;}
	.st102{clip-path:url(#ee);fill:#B21830;}
	.st103{clip-path:url(#ec);fill:none;stroke:#B21830;stroke-width:0.133;}
	.st104{clip-path:url(#dz);fill:#B21830;}
	.st105{clip-path:url(#dx);fill:none;stroke:#B21830;stroke-width:0.133;}
	.st106{clip-path:url(#dv);fill:#B21830;}
	.st107{clip-path:url(#dt);fill:none;stroke:#B21830;stroke-width:0.133;}
	.st108{clip-path:url(#dr);fill:#2B2422;}
	.st109{clip-path:url(#do);fill:#2B2422;}
	.st110{clip-path:url(#dm);fill:#2B2422;}
	.st111{clip-path:url(#dk);fill:#2B2422;}
	.st112{clip-path:url(#di);fill:#2B2422;}
	.st113{clip-path:url(#dg);fill:#2B2422;}
	.st114{clip-path:url(#dd);fill:#2B2422;}
	.st115{clip-path:url(#db);fill:#2B2422;}
	.st116{clip-path:url(#cz);fill:#2B2422;}
	.st117{clip-path:url(#cx);fill:#2B2422;}
	.st118{clip-path:url(#cv);fill:#2B2422;}
	.st119{clip-path:url(#cs);fill:#2B2422;}
	.st120{clip-path:url(#cq);fill:#2B2422;}
	.st121{clip-path:url(#co);fill:#2B2422;}
	.st122{clip-path:url(#cm);fill:#2B2422;}
	.st123{clip-path:url(#ck);fill:#2B2422;}
	.st124{clip-path:url(#ch);fill:#2B2422;}
	.st125{clip-path:url(#cf);fill:#2B2422;}
</style>
	<defs>
		<rect id="el" x=".7" y=".6" width="266.8" height="58.5"/>
	</defs>
	<clipPath id="bz">
		<use xlink:href="#el"/>
	</clipPath>
	<path class="st0" d="m64.9 18.2h-0.6c-0.4-2.4-2-5.1-4.6-5.1-1.2 0-2.5 0.9-2.5 2.7 0 4.4 8.3 5 8.3 11 0 2.5-1.7 5.3-5.3 5.3-1.9 0-3.1-1-3.9-1-0.5 0-0.8 0.5-0.8 1h-0.5l-0.8-6.1h0.6c0.5 1.4 1.7 5.2 5.1 5.2 2 0 3-1.7 3-3.3 0-1.7-0.4-2.7-4.1-5.2-2.3-1.6-3.9-2.8-3.9-5.8 0-3.3 2.3-5 4.5-5 1.5 0 2.8 1 3.5 1s0.8-0.7 0.9-1h0.5s0.6 6.4 0.6 6.3z"/>
	<defs>
		<rect id="bo" x=".7" y=".6" width="266.8" height="58.5"/>
	</defs>
	<clipPath id="bd">
		<use xlink:href="#bo"/>
	</clipPath>
	<path class="st1" d="m64.9 18.2h-0.6c-0.4-2.4-2-5.1-4.6-5.1-1.2 0-2.5 0.9-2.5 2.7 0 4.4 8.3 5 8.3 11 0 2.5-1.7 5.3-5.3 5.3-1.9 0-3.1-1-3.9-1-0.5 0-0.8 0.5-0.8 1h-0.5l-0.8-6.1h0.6c0.5 1.4 1.7 5.2 5.1 5.2 2 0 3-1.7 3-3.3 0-1.7-0.4-2.7-4.1-5.2-2.3-1.6-3.9-2.8-3.9-5.8 0-3.3 2.3-5 4.5-5 1.5 0 2.8 1 3.5 1s0.8-0.7 0.9-1h0.5s0.6 6.4 0.6 6.3z"/>
	<defs>
		<rect id="as" x=".7" y=".6" width="266.8" height="58.5"/>
	</defs>
	<clipPath id="ah">
		<use xlink:href="#as"/>
	</clipPath>
	<path class="st2" d="m72 19.5h-2.5v8.4c0 0.9 0 2.6 1.3 2.6 0.8 0 1.2-0.6 1.5-1l0.3 0.3c-0.6 1.3-1.8 2.2-2.9 2.2-1.3 0-2.3-0.8-2.3-3.7v-8.8h-1.4s-0.1-0.1-0.1-0.2c0-0.4 0.5-0.5 1.1-1.2 0.9-1.1 1.3-1.8 2.2-3.3 0.2 0 0.2 0.1 0.2 0.4v3.4h2.5v0.9h0.1z"/>
	<defs>
		<rect id="w" x=".7" y=".6" width="266.8" height="58.5"/>
	</defs>
	<clipPath id="l">
		<use xlink:href="#w"/>
	</clipPath>
	<path class="st3" d="m72 19.5h-2.5v8.4c0 0.9 0 2.6 1.3 2.6 0.8 0 1.2-0.6 1.5-1l0.3 0.3c-0.6 1.3-1.8 2.2-2.9 2.2-1.3 0-2.3-0.8-2.3-3.7v-8.8h-1.4s-0.1-0.1-0.1-0.2c0-0.4 0.5-0.5 1.1-1.2 0.9-1.1 1.3-1.8 2.2-3.3 0.2 0 0.2 0.1 0.2 0.4v3.4h2.5v0.9h0.1z"/>
	<defs>
		<rect id="a" x=".7" y=".6" width="266.8" height="58.5"/>
	</defs>
	<clipPath id="ih">
		<use xlink:href="#a"/>
	</clipPath>
	<path class="st4" d="m73.8 30.5c0-0.9 0.6-1.7 1.4-1.7 0.7 0 1.4 0.8 1.4 1.7 0 1.1-0.9 1.6-1.4 1.6-0.6 0-1.4-0.5-1.4-1.6"/>
	<defs>
		<rect id="hw" x=".7" y=".6" width="266.8" height="58.5"/>
	</defs>
	<clipPath id="hl">
		<use xlink:href="#hw"/>
	</clipPath>
	<path class="st5" d="m73.8 30.5c0-0.9 0.6-1.7 1.4-1.7 0.7 0 1.4 0.8 1.4 1.7 0 1.1-0.9 1.6-1.4 1.6-0.6 0-1.4-0.5-1.4-1.6z"/>
	<defs>
		<rect id="ha" x=".7" y=".6" width="266.8" height="58.5"/>
	</defs>
	<clipPath id="gp">
		<use xlink:href="#ha"/>
	</clipPath>
	<path class="st6" d="m100.2 22c-1.1 0.1-1.7 0.2-1.7 2.3v5.9c0 0.4-3.3 2.1-6.1 2.1-2.5 0-5.2-0.9-7-3.1-1.3-1.7-2.1-3.4-2.1-7.3 0-4.9 3.2-9.8 8.5-9.8 2.5 0 3.7 1 4.5 1 0.2 0 1-0.1 1.2-1h0.5l0.2 6.2h-0.6c-0.7-2.1-2-5-5.5-5-2.4 0-6 1.9-6 9.3 0 5.3 2.6 8.6 6.5 8.6 1.7 0 3.4-0.7 3.4-1.7v-4.8c0-2.4-0.5-2.5-2.2-2.6v-0.5h6.4v0.4z"/>
	<defs>
		<rect id="ge" x=".7" y=".6" width="266.8" height="58.5"/>
	</defs>
	<clipPath id="ft">
		<use xlink:href="#ge"/>
	</clipPath>
	<path class="st7" d="m100.2 22c-1.1 0.1-1.7 0.2-1.7 2.3v5.9c0 0.4-3.3 2.1-6.1 2.1-2.5 0-5.2-0.9-7-3.1-1.3-1.7-2.1-3.4-2.1-7.3 0-4.9 3.2-9.8 8.5-9.8 2.5 0 3.7 1 4.5 1 0.2 0 1-0.1 1.2-1h0.5l0.2 6.2h-0.6c-0.7-2.1-2-5-5.5-5-2.4 0-6 1.9-6 9.3 0 5.3 2.6 8.6 6.5 8.6 1.7 0 3.4-0.7 3.4-1.7v-4.8c0-2.4-0.5-2.5-2.2-2.6v-0.5h6.4v0.4z"/>
	<defs>
		<rect id="fi" x=".7" y=".6" width="266.8" height="58.5"/>
	</defs>
	<clipPath id="ex">
		<use xlink:href="#fi"/>
	</clipPath>
	<path class="st8" d="m102.5 22.8c0.4-2.6 1.4-3.4 2.7-3.4 2 0 2.2 2 2.4 3.4h-5.1zm7.7 4.2c-0.6 1.1-1.6 3.1-3.9 3.1-1.6 0-3.7-1.2-4-6.4h7.8c-0.3-3.8-2-5.4-4.4-5.4-2 0-5.1 1.8-5.1 7.2 0 4.2 1.9 6.6 4.7 6.6 3.6 0 5-4 5.3-4.9l-0.4-0.2z"/>
	<defs>
		<rect id="em" x=".7" y=".6" width="266.8" height="58.5"/>
	</defs>
	<clipPath id="ea">
		<use xlink:href="#em"/>
	</clipPath>
	<path class="st9" d="m102.5 22.8c0.4-2.6 1.4-3.4 2.7-3.4 2 0 2.2 2 2.4 3.4h-5.1zm7.7 4.2c-0.6 1.1-1.6 3.1-3.9 3.1-1.6 0-3.7-1.2-4-6.4h7.8c-0.3-3.8-2-5.4-4.4-5.4-2 0-5.1 1.8-5.1 7.2 0 4.2 1.9 6.6 4.7 6.6 3.6 0 5-4 5.3-4.9l-0.4-0.2z"/>
	<defs>
		<rect id="dp" x=".7" y=".6" width="266.8" height="58.5"/>
	</defs>
	<clipPath id="de">
		<use xlink:href="#dp"/>
	</clipPath>
	<path class="st10" d="m117.2 31.2c-3 0-3.6-5.4-3.6-7.6 0-3.1 1.4-4.6 2.9-4.6 2.3 0 3.6 3.2 3.6 6.8 0 4.4-1.7 5.5-2.9 5.4m-0.4-12.9c-3.3 0-5.4 3.2-5.4 6.8 0 4 2.2 7 5.5 7 3.8 0 5.5-4.1 5.5-7 0-4.2-2.4-6.8-5.6-6.8"/>
	<defs>
		<rect id="ct" x=".7" y=".6" width="266.8" height="58.5"/>
	</defs>
	<clipPath id="ci">
		<use xlink:href="#ct"/>
	</clipPath>
	<path class="st11" d="m117.2 31.2c-3 0-3.6-5.4-3.6-7.6 0-3.1 1.4-4.6 2.9-4.6 2.3 0 3.6 3.2 3.6 6.8 0 4.4-1.7 5.5-2.9 5.4zm-0.4-13c-3.3 0-5.4 3.2-5.4 6.8 0 4 2.2 7 5.5 7 3.8 0 5.5-4.1 5.5-7 0-4.2-2.4-6.8-5.6-6.8z"/>
	<defs>
		<rect id="ce" x=".7" y=".6" width="266.8" height="58.5"/>
	</defs>
	<clipPath id="cd">
		<use xlink:href="#ce"/>
	</clipPath>
	<path class="st12" d="m124.5 22c0-1.7-0.5-1.8-0.9-1.8-0.3 0-0.6 0.1-0.8 0.1v-0.5c1.2-0.5 2.5-1 3.7-1.6l0.1 0.1v2.6h0.1c1.2-2.1 2-2.7 3-2.7 0.8 0 1.3 0.6 1.3 1.6 0 0.7-0.4 1.3-0.9 1.3-0.9 0-1.1-1-1.7-1s-1.7 1.5-1.7 2.4v6.5c0 2 0.8 2.1 2.1 2.2v0.4h-6v-0.4c1.4-0.3 1.8-0.4 1.8-2v-7.3l-0.1 0.1z"/>
	<defs>
		<rect id="cc" x=".7" y=".6" width="266.8" height="58.5"/>
	</defs>
	<clipPath id="cb">
		<use xlink:href="#cc"/>
	</clipPath>
	<path class="st13" d="m124.5 22c0-1.7-0.5-1.8-0.9-1.8-0.3 0-0.6 0.1-0.8 0.1v-0.5c1.2-0.5 2.5-1 3.7-1.6l0.1 0.1v2.6h0.1c1.2-2.1 2-2.7 3-2.7 0.8 0 1.3 0.6 1.3 1.6 0 0.7-0.4 1.3-0.9 1.3-0.9 0-1.1-1-1.7-1s-1.7 1.5-1.7 2.4v6.5c0 2 0.8 2.1 2.1 2.2v0.4h-6v-0.4c1.4-0.3 1.8-0.4 1.8-2v-7.3l-0.1 0.1z"/>
	<defs>
		<rect id="ca" x=".7" y=".6" width="266.8" height="58.5"/>
	</defs>
	<clipPath id="by">
		<use xlink:href="#ca"/>
	</clipPath>
	<path class="st14" d="m132.4 34.5c0-0.9 0.4-1.5 1.2-2.6 1.2 0.3 1.7 0.3 4.1 0.4 1.8 0.1 3.1 0.1 3.1 1.4 0 1.6-1.7 2.9-4.6 2.9s-3.8-1.2-3.8-2.1m1.4-12.7c0-2 1-2.6 1.9-2.6 2.1 0 2.5 3.9 2.5 4.8 0 0.6-0.1 2.8-1.8 2.8-2-0.1-2.6-2.7-2.6-5m7.9-1.3v-1.2h-1.9c-0.4 0-0.9-0.1-1.4-0.3-1-0.4-1.5-0.7-2.4-0.7-1.9 0-4.3 1.4-4.3 4.9 0 1.7 0.8 3.1 2.3 3.8-2.2 2.3-2.2 2.7-2.2 3.2 0 0.8 0.6 1.2 1.3 1.6-1.3 1.1-2.4 2.3-2.4 3.6 0 1.6 1.9 2.9 4.4 2.9 2.2 0 6.4-1.6 6.4-5 0-0.8-0.3-3-3-3.1l-3.2-0.2c-0.7 0-1.9-0.1-1.9-0.8 0-0.6 1-1.8 1.5-1.9 0.1 0 1 0.1 1.3 0.1 1.4 0 4-1.1 4-4.3 0-1.5-0.2-2-0.5-2.7h2v0.1z"/>
	<defs>
		<rect id="bx" x=".7" y=".6" width="266.8" height="58.5"/>
	</defs>
	<clipPath id="bw">
		<use xlink:href="#bx"/>
	</clipPath>
	<path class="st15" d="m132.4 34.5c0-0.9 0.4-1.5 1.2-2.6 1.2 0.3 1.7 0.3 4.1 0.4 1.8 0.1 3.1 0.1 3.1 1.4 0 1.6-1.7 2.9-4.6 2.9s-3.8-1.2-3.8-2.1zm1.4-12.7c0-2 1-2.6 1.9-2.6 2.1 0 2.5 3.9 2.5 4.8 0 0.6-0.1 2.8-1.8 2.8-2-0.1-2.6-2.8-2.6-5zm7.9-1.3v-1.2h-1.9c-0.4 0-0.9-0.1-1.4-0.3-1-0.4-1.5-0.7-2.4-0.7-1.9 0-4.3 1.4-4.3 4.9 0 1.7 0.8 3.1 2.3 3.8-2.2 2.3-2.2 2.7-2.2 3.2 0 0.8 0.6 1.2 1.3 1.6-1.3 1.1-2.4 2.3-2.4 3.6 0 1.6 1.9 2.9 4.4 2.9 2.2 0 6.4-1.6 6.4-5 0-0.8-0.3-3-3-3.1l-3.2-0.2c-0.7 0-1.9-0.1-1.9-0.8 0-0.6 1-1.8 1.5-1.9 0.1 0 1 0.1 1.3 0.1 1.4 0 4-1.1 4-4.3 0-1.5-0.2-2-0.5-2.7h2v0.1z"/>
	<defs>
		<rect id="bv" x=".7" y=".6" width="266.8" height="58.5"/>
	</defs>
	<clipPath id="bu">
		<use xlink:href="#bv"/>
	</clipPath>
	<path class="st16" d="m144.4 22.8c0.4-2.6 1.4-3.4 2.7-3.4 2 0 2.2 2 2.4 3.4h-5.1zm7.8 4.2c-0.6 1.1-1.6 3.1-3.9 3.1-1.6 0-3.7-1.2-4-6.4h7.8c-0.3-3.8-2-5.4-4.4-5.4-2 0-5.1 1.8-5.1 7.2 0 4.2 1.9 6.6 4.7 6.6 3.6 0 5-4 5.3-4.9l-0.4-0.2z"/>
	<defs>
		<rect id="bt" x=".7" y=".6" width="266.8" height="58.5"/>
	</defs>
	<clipPath id="bs">
		<use xlink:href="#bt"/>
	</clipPath>
	<path class="st17" d="m144.4 22.8c0.4-2.6 1.4-3.4 2.7-3.4 2 0 2.2 2 2.4 3.4h-5.1zm7.8 4.2c-0.6 1.1-1.6 3.1-3.9 3.1-1.6 0-3.7-1.2-4-6.4h7.8c-0.3-3.8-2-5.4-4.4-5.4-2 0-5.1 1.8-5.1 7.2 0 4.2 1.9 6.6 4.7 6.6 3.6 0 5-4 5.3-4.9l-0.4-0.2z"/>
	<defs>
		<rect id="br" x=".7" y=".6" width="266.8" height="58.5"/>
	</defs>
	<clipPath id="bq">
		<use xlink:href="#br"/>
	</clipPath>
	<path class="st18" d="m153.5 18.5c1.6-1.2 2-2.6 2-3.1 0-0.3-0.2-0.4-0.3-0.4s-0.1 0-0.2 0.1c-0.1 0-0.2 0.1-0.4 0.1-0.7 0-1.5-0.3-1.5-1.5 0-1.3 0.8-1.7 1.4-1.7s2 0.4 2 2.8c0 2.1-2 4-2.8 4.3l-0.2-0.6z"/>
	<defs>
		<rect id="bp" x=".7" y=".6" width="266.8" height="58.5"/>
	</defs>
	<clipPath id="bn">
		<use xlink:href="#bp"/>
	</clipPath>
	<path class="st19" d="m153.5 18.5c1.6-1.2 2-2.6 2-3.1 0-0.3-0.2-0.4-0.3-0.4s-0.1 0-0.2 0.1c-0.1 0-0.2 0.1-0.4 0.1-0.7 0-1.5-0.3-1.5-1.5 0-1.3 0.8-1.7 1.4-1.7s2 0.4 2 2.8c0 2.1-2 4-2.8 4.3l-0.2-0.6z"/>
	<defs>
		<rect id="bm" x=".7" y=".6" width="266.8" height="58.5"/>
	</defs>
	<clipPath id="bl">
		<use xlink:href="#bm"/>
	</clipPath>
	<path class="st20" d="m163.9 22.5c-0.6-3-1.7-3.6-2.8-3.6-1.4 0-1.9 1.1-1.9 1.9 0 0.6 0.1 1.4 1.1 2.1l2.7 1.9c1.2 0.9 2.1 1.7 2.1 3.5 0 2.6-2 3.8-3.6 3.8-1.1 0-2.2-0.6-2.9-0.5-0.3 0-0.4 0.1-0.5 0.4h-0.3v-4.6h0.4c0.3 1.6 0.8 4.1 3.2 4.1 0.8 0 2-0.5 2-2.1 0-0.9-0.5-1.6-1.3-2.2l-1.4-1c-1.5-1-2.9-2.1-2.9-4.3 0-1.6 1.1-3.6 3.5-3.6 1.1 0 1.9 0.6 2.3 0.6 0.2 0 0.3-0.2 0.4-0.3h0.3l0.1 4h-0.5v-0.1z"/>
	<defs>
		<rect id="bk" x=".7" y=".6" width="266.8" height="58.5"/>
	</defs>
	<clipPath id="bj">
		<use xlink:href="#bk"/>
	</clipPath>
	<path class="st21" d="m163.9 22.5c-0.6-3-1.7-3.6-2.8-3.6-1.4 0-1.9 1.1-1.9 1.9 0 0.6 0.1 1.4 1.1 2.1l2.7 1.9c1.2 0.9 2.1 1.7 2.1 3.5 0 2.6-2 3.8-3.6 3.8-1.1 0-2.2-0.6-2.9-0.5-0.3 0-0.4 0.1-0.5 0.4h-0.3v-4.6h0.4c0.3 1.6 0.8 4.1 3.2 4.1 0.8 0 2-0.5 2-2.1 0-0.9-0.5-1.6-1.3-2.2l-1.4-1c-1.5-1-2.9-2.1-2.9-4.3 0-1.6 1.1-3.6 3.5-3.6 1.1 0 1.9 0.6 2.3 0.6 0.2 0 0.3-0.2 0.4-0.3h0.3l0.1 4h-0.5v-0.1z"/>
	<defs>
		<rect id="bi" x=".7" y=".6" width="266.8" height="58.5"/>
	</defs>
	<clipPath id="bh">
		<use xlink:href="#bi"/>
	</clipPath>
	<path class="st22" d="m187.9 13c-1.9 0.2-2.3 0.7-2.3 3.8v7.7c0 2.3 0 7.9-6.5 7.9-6.2 0-6.2-5.7-6.2-7.5v-9.2c0-2.2-0.3-2.5-2.2-2.6v-0.6h7.1v0.6c-2 0.2-2.3 0.6-2.3 2.6v9.4c0 1.9 0 6 4.3 6 1.9 0 3.4-0.9 4.1-2.3 0.3-0.6 0.6-1.6 0.6-4v-7.9c0-3.1-0.6-3.6-2.3-3.8v-0.6h5.8v0.5h-0.1z"/>
	<defs>
		<rect id="bg" x=".7" y=".6" width="266.8" height="58.5"/>
	</defs>
	<clipPath id="bf">
		<use xlink:href="#bg"/>
	</clipPath>
	<path class="st23" d="m187.9 13c-1.9 0.2-2.3 0.7-2.3 3.8v7.7c0 2.3 0 7.9-6.5 7.9-6.2 0-6.2-5.7-6.2-7.5v-9.2c0-2.2-0.3-2.5-2.2-2.6v-0.6h7.1v0.6c-2 0.2-2.3 0.6-2.3 2.6v9.4c0 1.9 0 6 4.3 6 1.9 0 3.4-0.9 4.1-2.3 0.3-0.6 0.6-1.6 0.6-4v-7.9c0-3.1-0.6-3.6-2.3-3.8v-0.6h5.8v0.5h-0.1z"/>
	<defs>
		<rect id="be" x=".7" y=".6" width="266.8" height="58.5"/>
	</defs>
	<clipPath id="bc">
		<use xlink:href="#be"/>
	</clipPath>
	<path class="st24" d="m188.4 21.8c0-1.9-0.5-1.9-0.9-1.9s-0.6 0.1-0.7 0.1v-0.5c1.1-0.4 2.3-0.8 3.4-1.3l0.2 0.1v2.3c1.2-1.4 2.2-2.4 3.6-2.4 1.1 0 2.9 0.8 2.9 4.4v6.7c0 1.4 0.3 1.8 1.5 1.9v0.4h-5.2v-0.4c0.9-0.1 1.6-0.2 1.6-2.5v-6.1c0-1.8-0.4-2.8-1.9-2.8-0.8 0-1.5 0.6-2.5 1.7v8.3c0 1 0.3 1.4 1.6 1.5v0.4h-5.3v-0.4c1.2-0.1 1.6-0.5 1.6-2.2l0.1-7.3z"/>
	<defs>
		<rect id="bb" x=".7" y=".6" width="266.8" height="58.5"/>
	</defs>
	<clipPath id="ba">
		<use xlink:href="#bb"/>
	</clipPath>
	<path class="st25" d="m188.4 21.8c0-1.9-0.5-1.9-0.9-1.9s-0.6 0.1-0.7 0.1v-0.5c1.1-0.4 2.3-0.8 3.4-1.3l0.2 0.1v2.3c1.2-1.4 2.2-2.4 3.6-2.4 1.1 0 2.9 0.8 2.9 4.4v6.7c0 1.4 0.3 1.8 1.5 1.9v0.4h-5.2v-0.4c0.9-0.1 1.6-0.2 1.6-2.5v-6.1c0-1.8-0.4-2.8-1.9-2.8-0.8 0-1.5 0.6-2.5 1.7v8.3c0 1 0.3 1.4 1.6 1.5v0.4h-5.3v-0.4c1.2-0.1 1.6-0.5 1.6-2.2l0.1-7.3z"/>
	<defs>
		<rect id="az" x=".7" y=".6" width="266.8" height="58.5"/>
	</defs>
	<clipPath id="ay">
		<use xlink:href="#az"/>
	</clipPath>
	<path class="st26" d="m198.7 31.3c1.6-0.1 2-0.3 2-2.6v-6.7c0-1.7-0.5-1.8-0.9-1.8-0.3 0-0.7 0.1-1 0.1v-0.4c1.3-0.5 2.6-1.1 3.9-1.6l0.1 0.1v10.4c0 1.9 0.1 2.4 1.8 2.6v0.4h-5.9v-0.5zm2.8-19.5c0.7 0 1.3 0.7 1.3 1.5 0 0.9-0.5 1.5-1.3 1.5-0.9 0-1.2-0.9-1.2-1.5s0.4-1.5 1.2-1.5"/>
	<defs>
		<rect id="ax" x=".7" y=".6" width="266.8" height="58.5"/>
	</defs>
	<clipPath id="aw">
		<use xlink:href="#ax"/>
	</clipPath>
	<path class="st27" d="m198.7 31.3c1.6-0.1 2-0.3 2-2.6v-6.7c0-1.7-0.5-1.8-0.9-1.8-0.3 0-0.7 0.1-1 0.1v-0.4c1.3-0.5 2.6-1.1 3.9-1.6l0.1 0.1v10.4c0 1.9 0.1 2.4 1.8 2.6v0.4h-5.9v-0.5zm2.8-19.5c0.7 0 1.3 0.7 1.3 1.5 0 0.9-0.5 1.5-1.3 1.5-0.9 0-1.2-0.9-1.2-1.5s0.4-1.5 1.2-1.5z"/>
	<defs>
		<rect id="av" x=".7" y=".6" width="266.8" height="58.5"/>
	</defs>
	<clipPath id="au">
		<use xlink:href="#av"/>
	</clipPath>
	<path class="st28" d="m216.1 19c-0.8 0.1-1 0.6-1.6 2.3l-3.2 9.4c-0.3 0.8-0.5 1.5-0.7 1.5s-0.3-0.1-0.7-1.4c-0.6-1.8-3-8.6-3.9-10.7-0.4-0.9-0.9-1.1-1.4-1.1v-0.4h4.9v0.4c-0.6 0.1-1.1 0.1-1.1 0.9 0 0.4 0.1 0.8 0.2 1l2.5 7.5c0.9-2.8 2.6-7.4 2.6-8.5 0-0.7-0.6-0.9-1.2-1v-0.4h3.5l0.1 0.5z"/>
	<defs>
		<rect id="at" x=".7" y=".6" width="266.8" height="58.5"/>
	</defs>
	<clipPath id="ar">
		<use xlink:href="#at"/>
	</clipPath>
	<path class="st29" d="m216.1 19c-0.8 0.1-1 0.6-1.6 2.3l-3.2 9.4c-0.3 0.8-0.5 1.5-0.7 1.5s-0.3-0.1-0.7-1.4c-0.6-1.8-3-8.6-3.9-10.7-0.4-0.9-0.9-1.1-1.4-1.1v-0.4h4.9v0.4c-0.6 0.1-1.1 0.1-1.1 0.9 0 0.4 0.1 0.8 0.2 1l2.5 7.5c0.9-2.8 2.6-7.4 2.6-8.5 0-0.7-0.6-0.9-1.2-1v-0.4h3.5l0.1 0.5z"/>
	<defs>
		<rect id="aq" x=".7" y=".6" width="266.8" height="58.5"/>
	</defs>
	<clipPath id="ap">
		<use xlink:href="#aq"/>
	</clipPath>
	<path class="st30" d="m217.3 22.8c0.4-2.6 1.4-3.4 2.7-3.4 2 0 2.2 2 2.4 3.4h-5.1zm7.8 4.2c-0.6 1.1-1.7 3.1-3.9 3.1-1.6 0-3.7-1.2-4-6.4h7.8c-0.3-3.8-2-5.4-4.4-5.4-2 0-5.1 1.8-5.1 7.2 0 4.2 1.9 6.6 4.7 6.6 3.6 0 5-4 5.3-4.9l-0.4-0.2z"/>
	<defs>
		<rect id="ao" x=".7" y=".6" width="266.8" height="58.5"/>
	</defs>
	<clipPath id="an">
		<use xlink:href="#ao"/>
	</clipPath>
	<path class="st31" d="m217.3 22.8c0.4-2.6 1.4-3.4 2.7-3.4 2 0 2.2 2 2.4 3.4h-5.1zm7.8 4.2c-0.6 1.1-1.7 3.1-3.9 3.1-1.6 0-3.7-1.2-4-6.4h7.8c-0.3-3.8-2-5.4-4.4-5.4-2 0-5.1 1.8-5.1 7.2 0 4.2 1.9 6.6 4.7 6.6 3.6 0 5-4 5.3-4.9l-0.4-0.2z"/>
	<defs>
		<rect id="am" x=".7" y=".6" width="266.8" height="58.5"/>
	</defs>
	<clipPath id="al">
		<use xlink:href="#am"/>
	</clipPath>
	<path class="st32" d="m226.9 22c0-1.7-0.5-1.8-0.9-1.8-0.3 0-0.6 0.1-0.9 0.1v-0.5c1.2-0.5 2.5-1 3.7-1.6l0.1 0.1v2.6h0.1c1.2-2.1 2-2.7 3-2.7 0.9 0 1.4 0.6 1.4 1.6 0 0.7-0.4 1.3-0.9 1.3-0.9 0-1.1-1-1.7-1s-1.7 1.5-1.7 2.4v6.5c0 2 0.8 2.1 2.1 2.2v0.4h-6v-0.4c1.4-0.3 1.8-0.4 1.8-2v-7.3l-0.1 0.1z"/>
	<defs>
		<rect id="ak" x=".7" y=".6" width="266.8" height="58.5"/>
	</defs>
	<clipPath id="aj">
		<use xlink:href="#ak"/>
	</clipPath>
	<path class="st33" d="m226.9 22c0-1.7-0.5-1.8-0.9-1.8-0.3 0-0.6 0.1-0.9 0.1v-0.5c1.2-0.5 2.5-1 3.7-1.6l0.1 0.1v2.6h0.1c1.2-2.1 2-2.7 3-2.7 0.9 0 1.4 0.6 1.4 1.6 0 0.7-0.4 1.3-0.9 1.3-0.9 0-1.1-1-1.7-1s-1.7 1.5-1.7 2.4v6.5c0 2 0.8 2.1 2.1 2.2v0.4h-6v-0.4c1.4-0.3 1.8-0.4 1.8-2v-7.3l-0.1 0.1z"/>
	<defs>
		<rect id="ai" x=".7" y=".6" width="266.8" height="58.5"/>
	</defs>
	<clipPath id="ag">
		<use xlink:href="#ai"/>
	</clipPath>
	<path class="st34" d="m240.3 22.5c-0.5-3-1.7-3.6-2.8-3.6-1.4 0-1.9 1.1-1.9 1.9 0 0.6 0.1 1.4 1.1 2.1l2.7 1.9c1.2 0.9 2.1 1.7 2.1 3.5 0 2.6-2 3.8-3.6 3.8-1.1 0-2.2-0.6-2.9-0.5-0.3 0-0.4 0.1-0.5 0.4h-0.3v-4.6h0.4c0.3 1.6 0.8 4.1 3.2 4.1 0.8 0 2-0.5 2-2.1 0-0.9-0.5-1.6-1.3-2.2l-1.4-1c-1.5-1-2.9-2.1-2.9-4.3 0-1.6 1.1-3.6 3.5-3.6 1.1 0 1.9 0.6 2.3 0.6 0.2 0 0.3-0.2 0.4-0.3h0.3l0.1 4h-0.5v-0.1z"/>
	<defs>
		<rect id="af" x=".7" y=".6" width="266.8" height="58.5"/>
	</defs>
	<clipPath id="ae">
		<use xlink:href="#af"/>
	</clipPath>
	<path class="st35" d="m240.3 22.5c-0.5-3-1.7-3.6-2.8-3.6-1.4 0-1.9 1.1-1.9 1.9 0 0.6 0.1 1.4 1.1 2.1l2.7 1.9c1.2 0.9 2.1 1.7 2.1 3.5 0 2.6-2 3.8-3.6 3.8-1.1 0-2.2-0.6-2.9-0.5-0.3 0-0.4 0.1-0.5 0.4h-0.3v-4.6h0.4c0.3 1.6 0.8 4.1 3.2 4.1 0.8 0 2-0.5 2-2.1 0-0.9-0.5-1.6-1.3-2.2l-1.4-1c-1.5-1-2.9-2.1-2.9-4.3 0-1.6 1.1-3.6 3.5-3.6 1.1 0 1.9 0.6 2.3 0.6 0.2 0 0.3-0.2 0.4-0.3h0.3l0.1 4h-0.5v-0.1z"/>
	<defs>
		<rect id="ad" x=".7" y=".6" width="266.8" height="58.5"/>
	</defs>
	<clipPath id="ac">
		<use xlink:href="#ad"/>
	</clipPath>
	<path class="st36" d="m242.4 31.3c1.6-0.1 2-0.3 2-2.6v-6.7c0-1.7-0.5-1.8-0.9-1.8-0.3 0-0.7 0.1-1 0.1v-0.4c1.3-0.5 2.6-1.1 3.9-1.6l0.1 0.1v10.4c0 1.9 0.1 2.4 1.8 2.6v0.4h-5.9v-0.5zm2.8-19.5c0.8 0 1.3 0.7 1.3 1.5 0 0.9-0.5 1.5-1.3 1.5-0.9 0-1.2-0.9-1.2-1.5s0.3-1.5 1.2-1.5"/>
	<defs>
		<rect id="ab" x=".7" y=".6" width="266.8" height="58.5"/>
	</defs>
	<clipPath id="aa">
		<use xlink:href="#ab"/>
	</clipPath>
	<path class="st37" d="m242.4 31.3c1.6-0.1 2-0.3 2-2.6v-6.7c0-1.7-0.5-1.8-0.9-1.8-0.3 0-0.7 0.1-1 0.1v-0.4c1.3-0.5 2.6-1.1 3.9-1.6l0.1 0.1v10.4c0 1.9 0.1 2.4 1.8 2.6v0.4h-5.9v-0.5zm2.8-19.5c0.8 0 1.3 0.7 1.3 1.5 0 0.9-0.5 1.5-1.3 1.5-0.9 0-1.2-0.9-1.2-1.5s0.3-1.5 1.2-1.5z"/>
	<defs>
		<rect id="z" x=".7" y=".6" width="266.8" height="58.5"/>
	</defs>
	<clipPath id="y">
		<use xlink:href="#z"/>
	</clipPath>
	<path class="st38" d="m254.8 19.5h-2.5v8.4c0 0.9 0 2.6 1.3 2.6 0.8 0 1.2-0.6 1.5-1l0.3 0.3c-0.6 1.3-1.8 2.2-2.9 2.2-1.3 0-2.3-0.8-2.3-3.7v-8.8h-1.3s-0.1-0.1-0.1-0.2c0-0.4 0.6-0.5 1.1-1.2 0.9-1.1 1.3-1.8 2.2-3.3 0.2 0 0.2 0.1 0.2 0.4v3.4h2.5v0.9z"/>
	<defs>
		<rect id="x" x=".7" y=".6" width="266.8" height="58.5"/>
	</defs>
	<clipPath id="v">
		<use xlink:href="#x"/>
	</clipPath>
	<path class="st39" d="m254.8 19.5h-2.5v8.4c0 0.9 0 2.6 1.3 2.6 0.8 0 1.2-0.6 1.5-1l0.3 0.3c-0.6 1.3-1.8 2.2-2.9 2.2-1.3 0-2.3-0.8-2.3-3.7v-8.8h-1.3s-0.1-0.1-0.1-0.2c0-0.4 0.6-0.5 1.1-1.2 0.9-1.1 1.3-1.8 2.2-3.3 0.2 0 0.2 0.1 0.2 0.4v3.4h2.5v0.9z"/>
	<defs>
		<rect id="u" x=".7" y=".6" width="266.8" height="58.5"/>
	</defs>
	<clipPath id="t">
		<use xlink:href="#u"/>
	</clipPath>
	<path class="st40" d="m267.3 19c-0.3 0.1-0.8 0.1-1.2 1.3l-3.8 12c-1.3 3.9-2.4 5.9-4.3 5.9-1.2 0-1.8-0.9-1.8-1.7 0-0.2 0-1.3 1.2-1.3 0.7 0 1.4 0.5 1.8 0.5 1.3 0 2.3-4.1 2.3-4.5s-1.2-3.1-1.5-4.1l-2.8-7.2c-0.3-0.7-0.9-0.9-1.3-0.9v-0.4h5.1v0.4c-0.6 0-1.4 0.1-1.4 0.9 0 0.4 0.2 0.9 0.2 1.1l2.9 7.4 1.9-6.5c0.2-0.8 0.6-1.7 0.6-2 0-0.6-0.4-0.9-1.2-0.8v-0.4h3.4v0.3h-0.1z"/>
	<defs>
		<rect id="s" x=".7" y=".6" width="266.8" height="58.5"/>
	</defs>
	<clipPath id="r">
		<use xlink:href="#s"/>
	</clipPath>
	<path class="st41" d="m267.3 19c-0.3 0.1-0.8 0.1-1.2 1.3l-3.8 12c-1.3 3.9-2.4 5.9-4.3 5.9-1.2 0-1.8-0.9-1.8-1.7 0-0.2 0-1.3 1.2-1.3 0.7 0 1.4 0.5 1.8 0.5 1.3 0 2.3-4.1 2.3-4.5s-1.2-3.1-1.5-4.1l-2.8-7.2c-0.3-0.7-0.9-0.9-1.3-0.9v-0.4h5.1v0.4c-0.6 0-1.4 0.1-1.4 0.9 0 0.4 0.2 0.9 0.2 1.1l2.9 7.4 1.9-6.5c0.2-0.8 0.6-1.7 0.6-2 0-0.6-0.4-0.9-1.2-0.8v-0.4h3.4v0.3h-0.1z"/>
	<defs>
		<rect id="q" x=".7" y=".6" width="266.8" height="58.5"/>
	</defs>
	<clipPath id="p">
		<use xlink:href="#q"/>
	</clipPath>
	<path class="st42" d="M47.6,25c0,6-2.3,11.7-6.6,15.9c-4.2,4.3-9.9,6.6-15.9,6.6s-11.7-2.3-15.9-6.6C5,36.8,2.6,31,2.6,25   S4.9,13.3,9.2,9.1s9.9-6.6,15.9-6.6S36.8,4.8,41,9.1C45.3,13.4,47.6,19,47.6,25"/>
	<defs>
		<rect id="o" x=".7" y=".6" width="266.8" height="58.5"/>
	</defs>
	<clipPath id="n">
		<use xlink:href="#o"/>
	</clipPath>
	<path class="st43" d="M25.1,49.3c13.4,0,24.2-10.8,24.2-24.2S38.5,0.9,25.1,0.9S0.9,11.7,0.9,25.1C0.9,38.4,11.7,49.3,25.1,49.3"/>
	<defs>
		<rect id="m" x=".7" y=".6" width="266.8" height="58.5"/>
	</defs>
	<clipPath id="k">
		<use xlink:href="#m"/>
	</clipPath>
	<circle class="st44" cx="25.1" cy="25" r="24.2"/>
	<defs>
		<rect id="j" x=".7" y=".6" width="266.8" height="58.5"/>
	</defs>
	<clipPath id="i">
		<use xlink:href="#j"/>
	</clipPath>
	<path class="st45" d="M25.1,48.2c12.8,0,23.1-10.3,23.1-23.1S37.9,2,25.1,2C12.4,2,2,12.4,2,25.1C2,37.9,12.4,48.2,25.1,48.2"/>
	<defs>
		<rect id="h" x=".7" y=".6" width="266.8" height="58.5"/>
	</defs>
	<clipPath id="g">
		<use xlink:href="#h"/>
	</clipPath>
	<circle class="st46" cx="25.1" cy="25" r="23.1"/>
	<defs>
		<rect id="f" x=".7" y=".6" width="266.8" height="58.5"/>
	</defs>
	<clipPath id="e">
		<use xlink:href="#f"/>
	</clipPath>
	<path class="st47" d="m12.4 39.8c-0.3 0.3-0.5 0.6-0.8 1-0.1 0.1-0.2 0.2-0.2 0.3l0.4 0.4h-0.1c-0.1-0.1-0.2-0.2-0.5-0.4-0.2-0.1-0.4-0.1-0.5-0.3 0 0-0.1-0.1 0-0.1 0-0.1 0.2 0 0.5 0.2 0.3-0.1 0.6-0.6 1.2-1.1l0.8-1c0.1-0.3 0.1-0.5 0-0.6s-0.1-0.1-0.1-0.2h0.1l0.3 0.3c0.1 0 0.1 0.1 0.2 0.1-0.1 0.4-0.2 0.8-0.2 0.9l-0.4 2 2.4-1.6 0.2 0.2c0.2 0.2 0.3 0.2 0.4 0.2 0 0 0.1 0.1 0 0.1 0 0-0.2 0-0.4-0.1l-1.2 2c-0.2 0.3-0.4 0.6-0.5 1 0.2 0.2 0.3 0.3 0.3 0.4h-0.1c-0.1-0.1-0.2-0.2-0.5-0.4s-0.5-0.3-0.6-0.4c0 0-0.1-0.1 0-0.1 0-0.1 0.2 0 0.5 0.2 0-0.1 0.1-0.1 0.1-0.2 0.1-0.2 0.3-0.4 0.4-0.6l1.3-2-2.6 1.7h-0.1v-0.1l0.5-2.6c0 0.1-0.8 0.9-0.8 0.8z"/>
	<defs>
		<rect id="d" x=".7" y=".6" width="266.8" height="58.5"/>
	</defs>
	<clipPath id="c">
		<use xlink:href="#d"/>
	</clipPath>
	<path class="st48" d="m18.1 41.2c-0.7-0.3-1.4 0-1.8 0.8-0.2 0.4-0.3 0.9-0.2 1.4 0.1 0.6 0.4 1 0.9 1.2 0.2 0.1 0.5 0.1 0.7 0.1s0.3-0.1 0.4-0.1v0.1s-0.1 0.1-0.3 0.2c-0.4 0.1-0.8 0.1-1.1-0.1-1-0.5-1.3-1.5-0.9-2.5 0.2-0.5 0.5-0.8 0.9-1 0.5-0.3 1.1-0.3 1.7 0 0.3 0.1 0.6 0.3 0.8 0.6 0.2-0.2 0.2-0.4 0.3-0.3v0.1c0 0.1-0.2 0.3-0.4 0.8-0.2 0.4-0.2 0.6-0.3 0.6h-0.1c-0.1 0 0-0.2 0.1-0.5l0.1-0.4c-0.1-0.6-0.4-0.9-0.8-1"/>
	<defs>
		<rect id="b" x=".7" y=".6" width="266.8" height="58.5"/>
	</defs>
	<clipPath id="ir">
		<use xlink:href="#b"/>
	</clipPath>
	<path class="st49" d="m20 43.8l-0.3 1.2c0 0.1-0.1 0.3-0.1 0.4 0.4 0.1 0.5 0.2 0.5 0.2h-0.1c-0.1 0-0.3-0.1-0.6-0.2s-0.5 0-0.6-0.1c-0.1 0-0.1 0-0.1-0.1s0.2-0.1 0.5 0c0.1-0.3 0.3-0.8 0.6-1.5l0.4-1.3c-0.1-0.3-0.1-0.5-0.3-0.6-0.1-0.1-0.2-0.1-0.2-0.1h0.1s0.2 0.1 0.4 0.1h0.2c0.1 0.4 0.2 0.8 0.2 0.9l0.5 1.9 1.5-2.4c0.1 0 0.2 0.1 0.3 0.1 0.3 0 0.4 0.1 0.4 0.1 0.1 0 0.1 0 0.1 0.1s-0.2 0.1-0.4 0.1l-0.3 2.3c0 0.3-0.1 0.7-0.1 1.1 0.3 0.1 0.4 0.2 0.4 0.2h-0.1c-0.1 0-0.3-0.1-0.6-0.2s-0.6-0.1-0.7-0.1-0.1 0-0.1-0.1 0.2-0.1 0.6 0c0-0.1 0-0.2 0.1-0.2 0-0.2 0.1-0.4 0.1-0.7l0.3-2.3-1.6 2.6c0 0.1-0.1 0.1-0.1 0.1l-0.1-0.1-0.7-2.5-0.1 1.1z"/>
	<defs>
		<rect id="iq" x=".7" y=".6" width="266.8" height="58.5"/>
	</defs>
	<clipPath id="ip">
		<use xlink:href="#iq"/>
	</clipPath>
	<path class="st50" d="m24.5 42.8c-0.3 0-0.5-0.1-0.5-0.1s0-0.1 0.1-0.1h0.7c0.4 0 0.6 0 0.7-0.1 0.1 0 0.1 0 0.1 0.1s-0.2 0.1-0.5 0.1v2.4c0 0.3 0 0.7 0.1 1h0.3c0.6 0 1.1-0.1 1.4-0.3v-0.3c0-0.1 0-0.2 0.1-0.2v1.2l-0.1-0.1v-0.1c-0.5 0-1.1-0.1-1.7-0.1h-1.1c0-0.1 0.2-0.1 0.5-0.1v-2.4c0-0.4 0-0.6-0.1-0.9"/>
	<defs>
		<rect id="io" x=".7" y=".6" width="266.8" height="58.5"/>
	</defs>
	<clipPath id="in">
		<use xlink:href="#io"/>
	</clipPath>
	<path class="st51" d="m26.9 42.6c0.2-0.1 0.4-0.1 0.7-0.1 0.3-0.1 0.4-0.1 0.6-0.2h0.1c0 0.1-0.1 0.1-0.4 0.2l1.2 1.2 0.2-0.6c0.1-0.3 0.2-0.6 0.3-1-0.3 0-0.4 0-0.4-0.1 0 0 0-0.1 0.1-0.1s0.2 0 0.5-0.1 0.4-0.1 0.5-0.1h0.1c0 0.1-0.1 0.1-0.4 0.2-0.3 0.5-0.5 0.9-0.6 1.2l-0.2 0.5 1.6 1.6h0.5s0 0.1-0.1 0.1-0.3 0-0.6 0.1-0.5 0.2-0.6 0.2h-0.1c0-0.1 0.1-0.1 0.4-0.2l-1.3-1.2-0.3 0.8c-0.1 0.2-0.2 0.5-0.2 0.9h0.5s0 0.1-0.1 0.1-0.3 0-0.6 0.1-0.4 0.1-0.6 0.2h-0.1c0-0.1 0.1-0.1 0.4-0.2 0.2-0.4 0.4-0.8 0.6-1.3l0.2-0.6-1.5-1.5c-0.2 0-0.4 0-0.4-0.1"/>
	<defs>
		<rect id="im" x=".7" y=".6" width="266.8" height="58.5"/>
	</defs>
	<clipPath id="il">
		<use xlink:href="#im"/>
	</clipPath>
	<path class="st52" d="m30.2 41.9l0.6-0.3c0.2-0.1 0.4-0.2 0.5-0.3h0.1c0 0.1-0.1 0.1-0.4 0.3l1.4 1 0.1-0.6c0.1-0.3 0.1-0.6 0.1-1-0.3 0.1-0.4 0.1-0.4 0 0 0 0-0.1 0.1-0.1s0.2-0.1 0.5-0.2 0.4-0.2 0.5-0.2h0.1l-0.3 0.3c-0.2 0.5-0.3 1-0.4 1.3l-0.1 0.5 1.9 1.2c0.3-0.1 0.5-0.1 0.5-0.1s0 0.1-0.1 0.1-0.3 0.1-0.6 0.2-0.5 0.2-0.6 0.3h-0.1c0-0.1 0.1-0.1 0.4-0.3l-1.5-1-0.2 0.8c0 0.2-0.1 0.5-0.1 0.9 0.3-0.1 0.5-0.1 0.5-0.1s0 0.1-0.1 0.1-0.3 0.2-0.6 0.3c-0.2 0.1-0.4 0.2-0.5 0.3h-0.1c0-0.1 0.1-0.1 0.3-0.3 0.1-0.4 0.2-0.9 0.3-1.4l0.1-0.6-1.8-1.2c0.1 0.2-0.1 0.2-0.1 0.1"/>
	<defs>
		<rect id="ik" x=".7" y=".6" width="266.8" height="58.5"/>
	</defs>
	<clipPath id="ij">
		<use xlink:href="#ik"/>
	</clipPath>
	<path class="st53" d="m33.3 40.7c-0.1 0 0 0 0 0 0.1-0.2 0.3-0.2 0.5-0.4 0.2-0.1 0.3-0.3 0.4-0.3h0.1c0 0.1-0.1 0.2-0.3 0.4l2.8 1.9-0.2-1.2c-0.1-0.6-0.3-1.3-0.6-2.1-0.3 0.1-0.4 0.2-0.4 0.1v-0.1c0.1 0 0.2-0.1 0.4-0.2s0.3-0.3 0.4-0.3h0.1s-0.1 0.1-0.2 0.3c0.1 0.5 0.2 1 0.3 1.4l0.5 2.3v0.1h-0.1l-3.2-2.2c-0.4 0.3-0.5 0.4-0.5 0.3"/>
	<defs>
		<rect id="ii" x=".7" y=".6" width="266.8" height="58.5"/>
	</defs>
	<clipPath id="ig">
		<use xlink:href="#ii"/>
	</clipPath>
	<path class="st54" d="m39.5 40.3c0.3-0.2 0.4-0.3 0.5-0.2v0.1c-0.1 0.1-0.3 0.2-0.5 0.4l-0.5 0.6h-0.1s0.1-0.2 0.3-0.4c-0.2-0.3-0.4-0.5-0.7-0.8l-0.9-1c-0.2-0.3-0.5-0.5-0.7-0.7-0.3 0.2-0.4 0.3-0.5 0.2v-0.1c0.1-0.1 0.3-0.2 0.5-0.4s0.4-0.4 0.4-0.5h0.1c0 0.1-0.1 0.2-0.3 0.4 0.2 0.3 0.4 0.5 0.7 0.8l0.9 1c0.4 0.1 0.6 0.5 0.8 0.6"/>
	<defs>
		<rect id="if" x=".7" y=".6" width="266.8" height="58.5"/>
	</defs>
	<clipPath id="ie">
		<use xlink:href="#if"/>
	</clipPath>
	<path class="st55" d="m7.8 37.7c-0.1 0-0.1 0 0 0-0.1-0.1-0.2-0.3-0.4-0.6s-0.3-0.5-0.4-0.5v-0.1c0.1 0 0.2 0.1 0.4 0.4l1.8-1c0.1 0 0.1-0.1 0.2-0.1 0.8-0.5 1-0.9 0.6-1.5-0.3-0.4-0.6-0.7-1.1-0.6-0.3 0-0.6 0.2-1 0.5l-0.5 0.1c-0.4 0.2-0.7 0.5-1 0.7 0.2 0.3 0.2 0.5 0.2 0.5h-0.1c0-0.1-0.1-0.2-0.3-0.5s-0.3-0.4-0.3-0.5v-0.1c0.1 0 0.1 0.1 0.3 0.3 0.2-0.1 0.6-0.3 1.1-0.6l0.5-0.3c0.4-0.2 0.7-0.4 1.1-0.4 0.5 0 0.9 0.2 1.2 0.7s0.3 0.9 0.1 1.3c-0.2 0.3-0.5 0.5-0.9 0.8l-1.6 1c0.1 0.3 0.1 0.5 0.1 0.5"/>
	<defs>
		<rect id="id" x=".7" y=".6" width="266.8" height="58.5"/>
	</defs>
	<clipPath id="ic">
		<use xlink:href="#id"/>
	</clipPath>
	<path class="st56" d="m7.3 32.2c0.5-0.2 0.9-0.4 1.2-0.5-0.1-0.4-0.1-0.6-0.1-0.6s0.1 0 0.1 0.1 0.1 0.3 0.2 0.6c0.1 0.2 0.2 0.4 0.2 0.5v0.1c-0.1 0-0.1-0.1-0.3-0.4-0.2 0-0.7 0.1-1.2 0.3l-1.8 0.6c-0.3 0.4-0.2 0.6-0.2 0.6s-0.1 0-0.1-0.1c0 0 0-0.2-0.1-0.4 0-0.1 0-0.1-0.1-0.2l2.2-3.2-1.4 0.5c-0.6 0.2-1 0.4-1.3 0.5 0.1 0.4 0.1 0.5 0 0.6 0 0-0.1 0-0.1-0.1s0-0.3-0.1-0.6c-0.1-0.2-0.2-0.4-0.2-0.5v-0.1c0.1 0 0.1 0.1 0.3 0.4 0.4-0.1 1-0.2 1.7-0.5l1.7-0.6h0.1s0 0.1-0.1 0.1l-2.2 3.2 1.6-0.3z"/>
	<defs>
		<rect id="ib" x=".7" y=".6" width="266.8" height="58.5"/>
	</defs>
	<clipPath id="ia">
		<use xlink:href="#ib"/>
	</clipPath>
	<path class="st57" d="m7.5 27.7c0-0.3 0-0.5 0.1-0.5l0.1 0.1c0 0.1 0 0.3 0.1 0.7s0.1 0.5 0.1 0.6v0.1c-0.1 0-0.1-0.2-0.2-0.5-0.3 0-0.7 0.1-1 0.1l-1.4 0.2c-0.3 0.1-0.7 0.1-1 0.2 0 0.3 0 0.5-0.1 0.5 0 0-0.1 0-0.1-0.1s0-0.3-0.1-0.7c-0.1-0.3-0.1-0.5-0.1-0.6v-0.1c0.1 0 0.1 0.2 0.2 0.5 0.3 0 0.7-0.1 1-0.1l1.4-0.2c0.3-0.1 0.7-0.2 1-0.2"/>
	<defs>
		<rect id="hz" x=".7" y=".6" width="266.8" height="58.5"/>
	</defs>
	<clipPath id="hy">
		<use xlink:href="#hz"/>
	</clipPath>
	<path class="st58" d="m3.8 27.2c-0.1 0-0.1-0.1 0 0-0.1-0.2 0-0.4 0-0.6v-0.5c0-0.1 0-0.1 0.1-0.1s0.1 0.1 0.1 0.4l3.1-1.2-1.1-0.5c-0.6-0.3-1.3-0.5-2.1-0.6 0 0.3-0.1 0.4-0.1 0.4s-0.1 0-0.1-0.1v-1c0-0.1 0-0.1 0.1-0.1s0.1 0.1 0.1 0.4c0.4 0.2 0.9 0.4 1.3 0.6l2.2 0.9c0.1 0 0.1 0.1 0.1 0.1l-0.1 0.1-3.6 1.5c0.1 0.1 0 0.3 0 0.3"/>
	<defs>
		<rect id="hx" x=".7" y=".6" width="266.8" height="58.5"/>
	</defs>
	<clipPath id="hv">
		<use xlink:href="#hx"/>
	</clipPath>
	<path class="st59" d="m4.2 19.8h-0.2l-0.1-0.1h0.1c0.1 0 0.2 0.1 0.5 0.1h0.5s0.1 0 0 0.1h-0.5c-0.1 0.3-0.3 0.7-0.4 1.2 0 0.1 0 0.3-0.1 0.5 0.3 0.1 0.7 0.2 1 0.2l0.6 0.1 0.1-0.6c0.1-0.4 0.1-0.8 0.1-1.1-0.2-0.1-0.3-0.1-0.3-0.2h0.1c0.1 0 0.2 0.1 0.6 0.2 0.3 0.1 0.5 0.1 0.6 0.1 0 0 0.1 0 0.1 0.1s-0.1 0-0.3 0h-0.2c-0.1 0.3-0.2 0.6-0.3 1l-0.1 0.6 0.7 0.1c0.3 0.1 0.7 0.1 1 0.2 0-0.1 0.1-0.2 0.1-0.3 0.1-0.6 0.1-1.1 0-1.5l-0.3-0.1c-0.1 0-0.1-0.1-0.1-0.1h0.1s0.2 0.1 0.5 0.1c0.3 0.1 0.4 0 0.5 0 0 0 0.1 0 0.1 0.1h-0.2c-0.1 0.5-0.3 1-0.4 1.7l-0.1 0.4c-0.1 0.3-0.1 0.5-0.1 0.6s0 0.1-0.1 0.1-0.1-0.2 0-0.5c-0.3-0.1-0.6-0.2-1-0.2l-1.6-0.4c-0.3-0.1-0.7-0.1-1-0.2-0.1 0.3-0.2 0.5-0.2 0.5v-0.1c0-0.1 0.1-0.3 0.2-0.6l0.1-0.5c-0.1-0.5 0-1 0-1.5"/>
	<defs>
		<rect id="hu" x=".7" y=".6" width="266.8" height="58.5"/>
	</defs>
	<clipPath id="ht">
		<use xlink:href="#hu"/>
	</clipPath>
	<path class="st60" d="m6.1 18.2l1.3 0.5c0.3 0.1 0.6 0.2 1 0.3 0.2-0.3 0.3-0.5 0.3-0.5v0.1c0 0.1-0.2 0.3-0.3 0.6s-0.2 0.5-0.2 0.6 0 0.1-0.1 0.1 0-0.2 0.1-0.5c-0.3-0.1-0.6-0.3-0.9-0.4l-1.3-0.5c-0.3-0.1-0.6-0.2-1-0.3-0.2 0.3-0.2 0.4-0.3 0.4v-0.1c0-0.1 0.2-0.3 0.3-0.6l0.3-0.9c0.3-0.7 0.8-1 1.3-0.8s0.8 0.9 0.5 1.7l1.5-0.4c0.2-0.1 0.4-0.1 0.4-0.3v-0.3h0.1c0.1 0 0.1 0.3 0 0.6-0.1 0.2-0.3 0.3-0.6 0.4l-1.5 0.3h-0.2v-0.1c0-0.1 0.1-0.1 0.1-0.2 0.3-0.7 0.1-1.1-0.4-1.3s-1 0-1.3 0.6c0 0.1-0.1 0.3-0.1 0.5 0.4 0.2 0.7 0.3 1 0.5"/>
	<defs>
		<rect id="hs" x=".7" y=".6" width="266.8" height="58.5"/>
	</defs>
	<clipPath id="hr">
		<use xlink:href="#hs"/>
	</clipPath>
	<path class="st61" d="m9.6 16.8s0.1 0 0 0c-0.2 0.1-0.4-0.2-0.8-0.5-0.2-0.1-0.4-0.3-0.5-0.3s-0.1-0.1-0.1-0.1c0-0.1 0.3 0.1 0.7 0.3 0.5-0.1 0.8-0.4 1-0.7 0.3-0.5 0.2-1.1-0.2-1.3-0.2-0.1-0.3-0.1-0.4-0.1-0.3 0.1-0.5 0.4-0.8 0.8-0.4 0.5-0.9 0.6-1.3 0.3-0.6-0.4-0.8-1.1-0.4-1.7 0.1-0.2 0.4-0.5 0.7-0.7l-0.2-0.2c0-0.1-0.1-0.1 0-0.1h0.1c0.1 0 0.3 0.3 0.7 0.6 0.1 0.1 0.2 0.1 0.2 0.1s0.1 0.1 0 0.1c0 0.1-0.2 0-0.6-0.2-0.4 0.1-0.7 0.3-0.9 0.6-0.3 0.5-0.2 1 0.2 1.3 0.4 0.2 0.6 0 1.1-0.5 0.2-0.2 0.4-0.5 0.6-0.6s0.5-0.1 0.8 0.1c0.6 0.4 0.8 1.2 0.3 1.9-0.2 0.3-0.4 0.5-0.7 0.7 0-0.1 0.5 0.1 0.5 0.2z"/>
	<defs>
		<rect id="hq" x=".7" y=".6" width="266.8" height="58.5"/>
	</defs>
	<clipPath id="hp">
		<use xlink:href="#hq"/>
	</clipPath>
	<path class="st62" d="m11.6 13.3c0.2-0.2 0.4-0.3 0.4-0.3v0.1l-0.5 0.5c-0.2 0.3-0.3 0.4-0.4 0.5 0 0-0.1 0.1-0.1 0-0.1 0 0-0.2 0.2-0.5-0.2-0.2-0.5-0.5-0.8-0.7l-1.1-0.9c-0.3-0.2-0.5-0.4-0.8-0.6-0.2 0.2-0.4 0.3-0.4 0.3v-0.1l0.5-0.5c0.2-0.3 0.3-0.5 0.4-0.5 0 0 0.1-0.1 0.1 0 0.1 0 0 0.2-0.2 0.5l0.7 0.7 1.1 0.9c0.4 0.3 0.7 0.5 0.9 0.6"/>
	<defs>
		<rect id="ho" x=".7" y=".6" width="266.8" height="58.5"/>
	</defs>
	<clipPath id="hn">
		<use xlink:href="#ho"/>
	</clipPath>
	<path class="st63" d="m13.4 11.5c0.3-0.2 0.5-0.4 0.5-0.3v0.1c-0.1 0-0.3 0.2-0.6 0.5l-0.5 0.5h-0.1c0-0.1 0.1-0.2 0.4-0.5-0.2-0.3-0.4-0.5-0.6-0.8l-0.9-1c-0.2-0.3-0.5-0.5-0.7-0.7-0.3 0.3-0.6 0.6-0.8 0.9l0.2 0.3c0.1 0.1 0.1 0.1 0.1 0.2h-0.1s-0.1-0.2-0.3-0.4l-0.4-0.4v-0.1h0.1l0.2 0.1c0.5-0.3 0.8-0.6 1.2-0.9 0.3-0.3 0.7-0.6 1-1.1l-0.1-0.2v-0.1h0.1s0.1 0.2 0.3 0.4 0.3 0.3 0.3 0.4v0.1s-0.1 0-0.2-0.1l-0.3-0.2c-0.3 0.1-0.6 0.3-1 0.6 0.2 0.3 0.4 0.5 0.7 0.8l0.9 1c0.2 0.5 0.4 0.7 0.6 0.9"/>
	<defs>
		<rect id="hm" x=".7" y=".6" width="266.8" height="58.5"/>
	</defs>
	<clipPath id="hk">
		<use xlink:href="#hm"/>
	</clipPath>
	<path class="st64" d="m14.7 9.5c0 0.2 0.1 0.4 0.2 0.8 0.4-0.2 0.6-0.3 0.6-0.2v0.1c-0.1 0.1-0.3 0.1-0.5 0.3-0.3 0.2-0.5 0.3-0.5 0.4h-0.1c0-0.1 0.1-0.2 0.4-0.4 0-0.3-0.1-0.7-0.1-1.1l-0.3-2.1c-0.2-0.1-0.4-0.3-0.5-0.4l0.3-0.4c0.2 0.2 0.6 0.6 1.2 0.9l1.3 0.9c0.3 0.2 0.6 0.4 0.8 0.6 0.3-0.1 0.5-0.2 0.5-0.1v0.1c-0.1 0-0.3 0.1-0.7 0.3-0.3 0.2-0.5 0.4-0.6 0.4h-0.1c0-0.1 0.1-0.2 0.5-0.4-0.2-0.2-0.4-0.4-0.6-0.5l-0.3-0.2-1.5 0.7v0.3zm1.1-1l-1.4-1.1 0.3 1.7 1.1-0.6z"/>
	<defs>
		<rect id="hj" x=".7" y=".6" width="266.8" height="58.5"/>
	</defs>
	<clipPath id="hi">
		<use xlink:href="#hj"/>
	</clipPath>
	<path class="st65" d="m18 9c-0.1 0-0.1 0 0 0-0.1 0-0.2-0.3-0.3-0.8-0.1-0.2-0.2-0.4-0.2-0.5v-0.1c0.1 0 0.2 0.2 0.4 0.7 0.5 0.2 0.9 0.2 1.2 0.1 0.5-0.2 0.8-0.7 0.6-1.1-0.1-0.2-0.2-0.3-0.3-0.3-0.3-0.1-0.7 0-1.1 0.1-0.7 0.1-1.1 0-1.3-0.5-0.2-0.7 0.1-1.3 0.8-1.6 0.3-0.1 0.6-0.1 0.9-0.1v-0.4h0.1c0 0.1 0 0.4 0.2 0.9 0 0.1 0.1 0.2 0.1 0.2v0.1c-0.1 0-0.1-0.1-0.3-0.5-0.4-0.2-0.7-0.2-1.1 0-0.5 0.2-0.8 0.7-0.6 1.1s0.5 0.4 1.2 0.3c0.3-0.1 0.6-0.1 0.9-0.1s0.5 0.2 0.6 0.5c0.2 0.7-0.1 1.4-0.9 1.7-0.3 0.1-0.6 0.1-1 0.1l0.1 0.2z"/>
	<defs>
		<rect id="hh" x=".7" y=".6" width="266.8" height="58.5"/>
	</defs>
	<clipPath id="hg">
		<use xlink:href="#hh"/>
	</clipPath>
	<path class="st66" d="m22.3 7.7c0 0.1-0.1 0.1 0 0l-0.1-0.8c0-0.3-0.1-0.4-0.1-0.5v-0.2c0.1 0 0.1 0.2 0.2 0.8 0.4 0.3 0.8 0.4 1.2 0.4 0.6-0.1 1-0.5 0.9-1 0-0.2-0.1-0.3-0.2-0.4-0.3-0.2-0.6-0.1-1.1-0.2-0.7 0-1-0.3-1.1-0.8-0.1-0.7 0.4-1.3 1.2-1.3 0.3 0 0.6 0 0.9 0.1l0.1-0.3c0-0.1 0-0.1 0.1-0.1 0 0.1-0.1 0.4 0 1v0.4c-0.1 0-0.1-0.2-0.2-0.6-0.3-0.3-0.7-0.4-1.1-0.3-0.6 0.1-0.9 0.5-0.9 0.9 0 0.5 0.4 0.5 1.1 0.6 0.3 0 0.6 0 0.9 0.1s0.4 0.3 0.5 0.7c0.1 0.7-0.5 1.3-1.3 1.4-0.3 0-0.6 0-1-0.1v0.2z"/>
	<defs>
		<rect id="hf" x=".7" y=".6" width="266.8" height="58.5"/>
	</defs>
	<clipPath id="he">
		<use xlink:href="#hf"/>
	</clipPath>
	<path class="st67" d="m25.9 6.5c-0.1 0.2-0.2 0.4-0.3 0.8 0.4 0.1 0.6 0.1 0.6 0.2h-0.1c-0.1 0-0.3-0.1-0.6-0.1h-0.7c-0.1 0-0.1 0-0.1-0.1s0.2-0.1 0.5-0.1c0.2-0.3 0.4-0.6 0.5-1l1-1.9c-0.1-0.2-0.1-0.4-0.2-0.6l0.5-0.1c0 0.3 0.2 0.8 0.4 1.4l0.5 1.5c0.1 0.3 0.2 0.7 0.3 0.9 0.3 0.1 0.5 0.1 0.5 0.2h-0.1c-0.1 0-0.3-0.1-0.7-0.1h-0.7c-0.1 0-0.1 0-0.1-0.1s0.2-0.1 0.6-0.1c0-0.3-0.1-0.5-0.2-0.8l-0.1-0.2-1.4-0.1-0.1 0.3zm1.5-0.3l-0.5-1.7-0.8 1.5s1.3 0.1 1.3 0.2z"/>
	<defs>
		<rect id="hd" x=".7" y=".6" width="266.8" height="58.5"/>
	</defs>
	<clipPath id="hc">
		<use xlink:href="#hd"/>
	</clipPath>
	<path class="st68" d="m29.6 6.3c-0.2 0.5-0.3 1-0.3 1.3 0.4 0.1 0.5 0.2 0.5 0.3h-0.1c-0.1 0-0.3-0.1-0.6-0.2-0.2-0.1-0.4-0.1-0.5-0.1 0 0-0.1 0-0.1-0.1s0.2 0 0.5 0c0.1-0.2 0.3-0.6 0.5-1.1l0.6-1.8c-0.2-0.4-0.4-0.5-0.4-0.5h0.1l0.4 0.2h0.2l1.3 3.7 0.4-1.4c0.2-0.6 0.3-1 0.3-1.3-0.3-0.1-0.5-0.3-0.5-0.3h0.1c0.1 0 0.3 0.1 0.6 0.2 0.2 0.1 0.4 0.1 0.5 0.1s0.1 0 0.1 0.1-0.2 0-0.5 0c-0.2 0.4-0.4 0.9-0.6 1.6l-0.5 1.8s-0.1 0-0.1-0.1l-1.4-3.7-0.5 1.3z"/>
	<defs>
		<rect id="hb" x=".7" y=".6" width="266.8" height="58.5"/>
	</defs>
	<clipPath id="gz">
		<use xlink:href="#hb"/>
	</clipPath>
	<path class="st69" d="m35.5 6.5c-0.7-0.5-1.4-0.1-1.8 0.5-0.2 0.4-0.3 0.9-0.3 1.3 0 0.6 0.3 1 0.8 1.3 0.2 0.1 0.5 0.2 0.7 0.2s0.3-0.1 0.4-0.1v0.1s-0.1 0.1-0.3 0.1c-0.4 0.1-0.8 0-1.1-0.2-1-0.5-1.3-1.5-0.7-2.5 0.3-0.5 0.6-0.8 1-1 0.6-0.2 1.1-0.2 1.7 0.1 0.3 0.1 0.5 0.4 0.8 0.7l0.3-0.3v0.1c0 0.1-0.2 0.3-0.5 0.8l-0.3 0.6h-0.1c-0.1 0 0-0.2 0.1-0.5l0.2-0.4c-0.2-0.4-0.5-0.7-0.9-0.8"/>
	<defs>
		<rect id="gy" x=".7" y=".6" width="266.8" height="58.5"/>
	</defs>
	<clipPath id="gx">
		<use xlink:href="#gy"/>
	</clipPath>
	<path class="st70" d="m36.7 11.5c0.3 0.3 0.4 0.4 0.4 0.5h-0.1c-0.1 0-0.2-0.2-0.5-0.5s-0.5-0.5-0.6-0.5c0 0-0.1-0.1 0-0.1 0-0.1 0.2 0 0.5 0.3 0.2-0.2 0.4-0.5 0.7-0.8l0.9-1c0.2-0.3 0.4-0.6 0.6-0.8-0.4-0.3-0.7-0.5-1-0.6l-0.3 0.2c-0.1 0.1-0.1 0.1-0.2 0.1v-0.1s0.1-0.1 0.3-0.4c0.2-0.2 0.3-0.4 0.3-0.4h0.1v0.1l-0.1 0.2c0.4 0.4 0.7 0.7 1.1 1 0.3 0.3 0.7 0.5 1.2 0.9l0.2-0.1h0.1v0.1l-0.4 0.4c-0.2 0.2-0.3 0.4-0.3 0.4h-0.1v-0.2l0.2-0.3c-0.2-0.3-0.4-0.6-0.8-0.8-0.2 0.2-0.5 0.5-0.7 0.8l-0.9 1.1c-0.2 0-0.4 0.2-0.6 0.5"/>
	<defs>
		<rect id="gw" x=".7" y=".6" width="266.8" height="58.5"/>
	</defs>
	<clipPath id="gv">
		<use xlink:href="#gw"/>
	</clipPath>
	<path class="st71" d="m38.5 13.2c0.2 0.3 0.3 0.4 0.2 0.5h-0.1c-0.1-0.1-0.2-0.3-0.4-0.5l-0.5-0.5v-0.1s0.2 0.1 0.4 0.3c0.3-0.2 0.5-0.4 0.8-0.7l1-0.9c0.3-0.2 0.5-0.5 0.7-0.7-0.2-0.3-0.3-0.4-0.2-0.5h0.1c0.1 0.1 0.2 0.3 0.4 0.5l0.5 0.5v0.1c-0.1 0-0.2-0.1-0.4-0.3-0.3 0.2-0.5 0.4-0.8 0.7l-1 0.9c-0.2 0.3-0.5 0.5-0.7 0.7"/>
	<defs>
		<rect id="gu" x=".7" y=".6" width="266.8" height="58.5"/>
	</defs>
	<clipPath id="gt">
		<use xlink:href="#gu"/>
	</clipPath>
	<path class="st72" d="m42.7 16.7c-0.2-0.3-0.2-0.5-0.2-0.6h0.1c0 0.1 0.1 0.3 0.1 0.6 0.2 0.1 0.3 0.3 0.4 0.4v0.1c-0.1 0-0.1-0.1-0.3-0.2l-0.8 0.5-0.2 0.2c-0.1 0-0.1 0-0.1-0.1l-0.3-0.3c-0.3-0.2-0.6-0.5-0.8-0.8-0.2-0.4-0.3-0.8-0.2-1.2 0.1-0.5 0.5-0.9 1-1.2s1.1-0.3 1.6-0.2 0.9 0.5 1.2 0.9c0.2 0.3 0.3 0.7 0.3 1.1 0.3-0.1 0.5-0.2 0.5-0.1v0.2c-0.1 0.1-0.4 0.1-0.9 0.4-0.3 0.2-0.4 0.3-0.5 0.3h-0.1c0-0.1 0.2-0.2 0.5-0.4 0.2-0.5 0.1-1-0.1-1.4-0.4-0.8-1.3-1-2.1-0.6-0.4 0.2-0.7 0.6-0.9 1s-0.2 1 0 1.4c0.1 0.2 0.4 0.5 0.7 0.6 0-0.1 1.1-0.6 1.1-0.6z"/>
	<defs>
		<rect id="gs" x=".7" y=".6" width="266.8" height="58.5"/>
	</defs>
	<clipPath id="gr">
		<use xlink:href="#gs"/>
	</clipPath>
	<path class="st73" d="m46 19.8h0.3l-0.1 0.1c-0.1 0-0.2 0-0.5 0.1s-0.4 0.2-0.5 0.2h-0.1s0-0.1 0.1-0.1l0.3-0.1c0-0.3-0.1-0.7-0.2-1.3 0-0.1-0.1-0.3-0.2-0.5-0.3 0.1-0.6 0.2-1 0.3l-0.6 0.2 0.2 0.6c0.1 0.4 0.3 0.7 0.4 1h0.4l-0.1 0.1c-0.1 0-0.3 0-0.6 0.1s-0.5 0.2-0.5 0.2h-0.1c0-0.1 0.1-0.1 0.3-0.2l0.2-0.1c0-0.3-0.1-0.6-0.2-1.1l-0.2-0.6-0.6 0.3c-0.3 0.1-0.6 0.2-1 0.3 0 0.1 0.1 0.2 0.1 0.3 0.2 0.5 0.4 1 0.6 1.3h0.5v0.1s-0.2 0-0.5 0.1-0.4 0.1-0.4 0.1h-0.1l0.1-0.1 0.1-0.1c-0.1-0.5-0.2-1.1-0.4-1.6l-0.1-0.4c-0.1-0.3-0.2-0.5-0.2-0.6v-0.1c0.1 0 0.1 0.1 0.3 0.4 0.3-0.1 0.6-0.2 1-0.3l1.3-0.4c0.3-0.1 0.7-0.2 1-0.3 0-0.3 0-0.5 0.1-0.5 0 0 0.1 0 0.1 0.1 0 0 0 0.3 0.2 0.6l0.2 0.5c0 0.5 0.2 1 0.4 1.4"/>
	<defs>
		<rect id="gq" x=".7" y=".6" width="266.8" height="58.5"/>
	</defs>
	<clipPath id="go">
		<use xlink:href="#gq"/>
	</clipPath>
	<path class="st74" d="m43.5 24.8c-0.5-0.3-0.8-0.8-0.8-1.5 0-0.5 0.1-1 0.4-1.4s0.7-0.6 1.3-0.6c0.4 0 0.8 0 1.1 0.2 0.6 0.3 1 0.9 1.1 1.6 0 0.5-0.1 1-0.4 1.4s-0.8 0.7-1.4 0.7c-0.5 0-1 0-1.3-0.4m-0.3-0.4c0.3 0.4 0.7 0.5 1.2 0.5s0.9-0.2 1.3-0.6c0.5-0.4 0.7-1 0.6-1.5-0.1-0.8-0.7-1.4-1.5-1.3-0.4 0-0.9 0.3-1.2 0.6-0.4 0.4-0.7 1-0.6 1.5-0.1 0.3 0 0.6 0.2 0.8"/>
	<defs>
		<rect id="gn" x=".7" y=".6" width="266.8" height="58.5"/>
	</defs>
	<clipPath id="gm">
		<use xlink:href="#gn"/>
	</clipPath>
	<path class="st75" d="m45.3 26.8l-1.4-0.2c-0.3 0-0.7-0.1-1-0.1-0.1 0.5-0.1 0.5-0.2 0.5 0-0.1 0.1-0.3 0.1-0.7v-0.7c0-0.1 0-0.1 0.1-0.1s0.1 0.2 0.1 0.5c0.3 0.1 0.6 0.1 1 0.2l1.4 0.2c0.4 0 0.7 0.1 1 0.1 0.1-0.3 0.1-0.5 0.2-0.5 0 0.1-0.1 0.3-0.1 0.6s0 0.6-0.1 0.9c-0.1 0.8-0.5 1.2-1.1 1.1s-1-0.6-0.9-1.5l-1.4 1c-0.2 0.1-0.3 0.2-0.4 0.4v0.3c-0.1 0-0.2-0.3-0.2-0.6s0.2-0.4 0.5-0.5l1.4-0.8c0.1 0 0.1-0.1 0.1-0.1s0.1 0 0.1 0.1 0 0.1-0.1 0.3c-0.1 0.7 0.1 1.1 0.7 1.2s1-0.3 1.1-0.9v-0.5c-0.3 0-0.6-0.2-0.9-0.2"/>
	<defs>
		<rect id="gl" x=".7" y=".6" width="266.8" height="58.5"/>
	</defs>
	<clipPath id="gk">
		<use xlink:href="#gl"/>
	</clipPath>
	<path class="st76" d="m43.2 32.2c0.1-0.3 0.2-0.5 0.3-0.5v0.1c0 0.1-0.1 0.2-0.2 0.5-0.1 0.2-0.1 0.4-0.1 0.5s0 0.1-0.1 0.1 0-0.1 0-0.3l-1-0.3c-0.2-0.1-0.3 0-0.3-0.1-0.1 0 0-0.1 0-0.2v-0.4c0-0.4-0.1-0.7 0.1-1.1 0.1-0.4 0.4-0.8 0.8-1 0.4-0.3 1-0.3 1.5-0.1s1 0.6 1.2 1.1 0.3 1 0.1 1.5c-0.1 0.3-0.3 0.6-0.6 1 0.3 0.2 0.5 0.3 0.4 0.3h-0.1c-0.1 0-0.4-0.2-0.9-0.4-0.3-0.1-0.5-0.1-0.5-0.1v-0.1c0-0.1 0.2 0 0.7 0.1 0.5-0.2 0.8-0.6 1-1 0.3-0.8-0.1-1.6-1-1.9-0.4-0.1-0.9-0.1-1.4 0-0.5 0.2-0.8 0.5-1 1-0.1 0.3-0.1 0.6 0 0.9l1.1 0.4z"/>
	<defs>
		<rect id="gj" x=".7" y=".6" width="266.8" height="58.5"/>
	</defs>
	<clipPath id="gi">
		<use xlink:href="#gj"/>
	</clipPath>
	<path class="st77" d="m40.9 33.5c-0.2 0.3-0.3 0.4-0.4 0.4v-0.1c0-0.1 0.2-0.3 0.3-0.6 0.2-0.3 0.2-0.5 0.3-0.6 0-0.1 0-0.1 0.1-0.1s0 0.2-0.1 0.5c0.3 0.2 0.6 0.3 0.9 0.5l1.2 0.6c0.3 0.2 0.6 0.3 0.9 0.4 0.2-0.3 0.3-0.4 0.4-0.4v0.1c0 0.1-0.2 0.3-0.3 0.6-0.2 0.3-0.2 0.5-0.3 0.6 0 0.1-0.1 0.1-0.1 0-0.1 0 0-0.2 0.1-0.5-0.3-0.2-0.6-0.3-0.9-0.5l-1.2-0.6c-0.3-0.1-0.6-0.2-0.9-0.3"/>
	<defs>
		<rect id="gh" x=".7" y=".6" width="266.8" height="58.5"/>
	</defs>
	<clipPath id="gg">
		<use xlink:href="#gh"/>
	</clipPath>
	<path class="st78" d="m39.9 35c-0.2 0.3-0.3 0.4-0.4 0.3v-0.1c0.1-0.1 0.2-0.2 0.4-0.5s0.3-0.5 0.3-0.6c0 0 0.1-0.1 0.1 0 0.1 0 0 0.2-0.2 0.5 0.3 0.2 0.5 0.4 0.8 0.6l1.2 0.8c0.3 0.2 0.6 0.4 0.9 0.5 0.2-0.3 0.3-0.4 0.4-0.3v0.1c-0.1 0.1-0.2 0.2-0.4 0.5s-0.3 0.5-0.3 0.6c0 0-0.1 0.1-0.1 0-0.1 0 0-0.2 0.2-0.5-0.3-0.2-0.5-0.4-0.8-0.6l-1.2-0.8c-0.3-0.1-0.6-0.3-0.9-0.5"/>
	<defs>
		<rect id="gf" x=".7" y=".6" width="266.8" height="58.5"/>
	</defs>
	<clipPath id="gd">
		<use xlink:href="#gf"/>
	</clipPath>
	<path class="st79" d="m10.5 38.9c0.4 0 0.7-0.3 0.7-0.7s-0.3-0.7-0.7-0.7-0.7 0.3-0.7 0.7c0.1 0.5 0.4 0.7 0.7 0.7"/>
	<defs>
		<rect id="gc" x=".7" y=".6" width="266.8" height="58.5"/>
	</defs>
	<clipPath id="gb">
		<use xlink:href="#gc"/>
	</clipPath>
	<path class="st80" d="m39.8 38.3c0.4 0 0.7-0.3 0.7-0.7s-0.3-0.6-0.7-0.6-0.7 0.3-0.7 0.7 0.3 0.6 0.7 0.6"/>
	<defs>
		<rect id="ga" x=".7" y=".6" width="266.8" height="58.5"/>
	</defs>
	<clipPath id="fz">
		<use xlink:href="#ga"/>
	</clipPath>
	<path class="st81" d="M25.1,41.3c9,0,16.3-7.3,16.3-16.3S34.1,8.8,25.1,8.8S8.8,16,8.8,25S16.1,41.3,25.1,41.3"/>
	<defs>
		<rect id="fy" x=".7" y=".6" width="266.8" height="58.5"/>
	</defs>
	<clipPath id="fx">
		<use xlink:href="#fy"/>
	</clipPath>
	<path class="st82" d="M25,38.8c7.6,0,13.8-6.2,13.8-13.8S32.6,11.2,25,11.2S11.2,17.5,11.2,25S17.4,38.8,25,38.8"/>
	<defs>
		<rect id="fw" x=".7" y=".6" width="266.8" height="58.5"/>
	</defs>
	<clipPath id="fv">
		<use xlink:href="#fw"/>
	</clipPath>
	<circle class="st83" cx="25" cy="25" r="13.8"/>
	<defs>
		<rect id="fu" x=".7" y=".6" width="266.8" height="58.5"/>
	</defs>
	<clipPath id="fs">
		<use xlink:href="#fu"/>
	</clipPath>
	<path class="st84" d="m25 40.2s11-3.4 11.1-17.5v-8.3h-22.1v8.3c0.1 14.1 11 17.5 11 17.5m-1.6-4.2c-5.4-3.1-6.1-9.6-6.1-9.6h6.1v9.6zm0.1-12.8h-6.5v-5.8h6.5v5.8zm3.1 12.8v-9.6h6.1s-0.6 6.4-6.1 9.6m6.4-12.8h-6.4v-5.8h6.4v5.8z"/>
	<defs>
		<rect id="fr" x=".7" y=".6" width="266.8" height="58.5"/>
	</defs>
	<clipPath id="fq">
		<use xlink:href="#fr"/>
	</clipPath>
	<path class="st85" d="m25 40.2s11-3.4 11.1-17.5v-8.3h-22.1v8.3c0.1 14.1 11 17.5 11 17.5m-1.6-4.2c-5.4-3.1-6.1-9.6-6.1-9.6h6.1v9.6zm0.1-12.8h-6.5v-5.8h6.5v5.8zm3.1 12.8v-9.6h6.1s-0.6 6.4-6.1 9.6zm6.4-12.8h-6.4v-5.8h6.4v5.8z"/>
	<defs>
		<rect id="fp" x=".7" y=".6" width="266.8" height="58.5"/>
	</defs>
	<clipPath id="fo">
		<use xlink:href="#fp"/>
	</clipPath>
	<polygon class="st86" points="158.1 37.8 165.3 37.8 165.3 38.6 162.3 38.6 162.3 44.8 161.1 44.8 161.1 38.6 158.1 38.6"/>
	<defs>
		<rect id="fn" x=".7" y=".6" width="266.8" height="58.5"/>
	</defs>
	<clipPath id="fm">
		<use xlink:href="#fn"/>
	</clipPath>
	<polygon class="st87" points="158.1 37.8 165.3 37.8 165.3 38.6 162.3 38.6 162.3 44.8 161.1 44.8 161.1 38.6 158.1 38.6"/>
	<defs>
		<rect id="fl" x=".7" y=".6" width="266.8" height="58.5"/>
	</defs>
	<clipPath id="fk">
		<use xlink:href="#fl"/>
	</clipPath>
	<polygon class="st88" points="166.9 44.8 166.9 37.8 168.1 37.8 168.1 40.8 172.5 40.8 172.5 37.8 173.7 37.8 173.7 44.8 172.5 44.8 172.5 41.4 168.1 41.4 168.1 44.8"/>
	<defs>
		<rect id="fj" x=".7" y=".6" width="266.8" height="58.5"/>
	</defs>
	<clipPath id="fh">
		<use xlink:href="#fj"/>
	</clipPath>
	<polygon class="st89" points="166.9 44.8 166.9 37.8 168.1 37.8 168.1 40.8 172.5 40.8 172.5 37.8 173.7 37.8 173.7 44.8 172.5 44.8 172.5 41.4 168.1 41.4 168.1 44.8"/>
	<defs>
		<rect id="fg" x=".7" y=".6" width="266.8" height="58.5"/>
	</defs>
	<clipPath id="ff">
		<use xlink:href="#fg"/>
	</clipPath>
	<rect class="st90" x="176.6" y="37.8" width="1.3" height="7.1"/>
	<defs>
		<rect id="fe" x=".7" y=".6" width="266.8" height="58.5"/>
	</defs>
	<clipPath id="fd">
		<use xlink:href="#fe"/>
	</clipPath>
	<rect class="st91" x="176.6" y="37.8" width="1.3" height="7.1"/>
	<defs>
		<rect id="fc" x=".7" y=".6" width="266.8" height="58.5"/>
	</defs>
	<clipPath id="fb">
		<use xlink:href="#fc"/>
	</clipPath>
	<path class="st92" d="m186.3 37.8h1.3v7.1h-2.1l-3.2-5.7c-0.2-0.3-0.3-0.6-0.4-1.1v6.7h-1.3v-7.1h2l3.2 5.8 0.4 0.8v-6.5h0.1z"/>
	<defs>
		<rect id="fa" x=".7" y=".6" width="266.8" height="58.5"/>
	</defs>
	<clipPath id="ez">
		<use xlink:href="#fa"/>
	</clipPath>
	<path class="st93" d="m186.3 37.8h1.3v7.1h-2.1l-3.2-5.7c-0.2-0.3-0.3-0.6-0.4-1.1v6.7h-1.3v-7.1h2l3.2 5.8 0.4 0.8v-6.5h0.1z"/>
	<defs>
		<rect id="ey" x=".7" y=".6" width="266.8" height="58.5"/>
	</defs>
	<clipPath id="ew">
		<use xlink:href="#ey"/>
	</clipPath>
	<polygon class="st94" points="190.1 44.8 190.1 37.8 191.3 37.8 191.3 41.4 191.4 41.4 195.5 37.8 197.1 37.8 193.4 40.8 197.2 44.8 195.6 44.8 192.5 41.4 191.4 42.4 191.4 44.8"/>
	<defs>
		<rect id="ev" x=".7" y=".6" width="266.8" height="58.5"/>
	</defs>
	<clipPath id="eu">
		<use xlink:href="#ev"/>
	</clipPath>
	<polygon class="st95" points="190.1 44.8 190.1 37.8 191.3 37.8 191.3 41.4 191.4 41.4 195.5 37.8 197.1 37.8 193.4 40.8 197.2 44.8 195.6 44.8 192.5 41.4 191.4 42.4 191.4 44.8"/>
	<defs>
		<rect id="et" x=".7" y=".6" width="266.8" height="58.5"/>
	</defs>
	<clipPath id="es">
		<use xlink:href="#et"/>
	</clipPath>
	<path class="st96" d="m202.6 44.8v-7.1h3.2c2.1 0 2.8 0.7 2.9 1.8 0 0.8-0.4 1.3-1.7 1.6 1.5 0.1 2 0.8 2 1.7 0 1.4-1.2 2.1-3.4 2.1l-3-0.1zm1.3-4h1.1c1.5 0 2.4-0.1 2.4-1.2 0-0.9-0.5-1.1-2.4-1.1h-1.1v2.3zm2 3.4c1.4 0 1.9-0.4 1.9-1.3 0-1.4-1.4-1.3-2.7-1.3h-1.1v2.6h1.9z"/>
	<defs>
		<rect id="er" x=".7" y=".6" width="266.8" height="58.5"/>
	</defs>
	<clipPath id="eq">
		<use xlink:href="#er"/>
	</clipPath>
	<path class="st97" d="m202.6 44.8v-7.1h3.2c2.1 0 2.8 0.7 2.9 1.8 0 0.8-0.4 1.3-1.7 1.6 1.5 0.1 2 0.8 2 1.7 0 1.4-1.2 2.1-3.4 2.1l-3-0.1zm1.3-4h1.1c1.5 0 2.4-0.1 2.4-1.2 0-0.9-0.5-1.1-2.4-1.1h-1.1v2.3zm2 3.4c1.4 0 1.9-0.4 1.9-1.3 0-1.4-1.4-1.3-2.7-1.3h-1.1v2.6h1.9z"/>
	<defs>
		<rect id="ep" x=".7" y=".6" width="266.8" height="58.5"/>
	</defs>
	<clipPath id="eo">
		<use xlink:href="#ep"/>
	</clipPath>
	<polygon class="st98" points="211.1 44.8 211.1 37.8 216.8 37.8 216.8 38.6 212.4 38.6 212.4 40.8 216.5 40.8 216.5 41.6 212.4 41.6 212.4 44.2 216.8 44.2 216.8 44.8"/>
	<defs>
		<rect id="en" x=".7" y=".6" width="266.8" height="58.5"/>
	</defs>
	<clipPath id="ek">
		<use xlink:href="#en"/>
	</clipPath>
	<polygon class="st99" points="211.1 44.8 211.1 37.8 216.8 37.8 216.8 38.6 212.4 38.6 212.4 40.8 216.5 40.8 216.5 41.6 212.4 41.6 212.4 44.2 216.8 44.2 216.8 44.8"/>
	<defs>
		<rect id="ej" x=".7" y=".6" width="266.8" height="58.5"/>
	</defs>
	<clipPath id="ei">
		<use xlink:href="#ej"/>
	</clipPath>
	<polygon class="st100" points="222 41.3 224.6 37.8 226 37.8 222.6 42.2 222.6 44.8 221.3 44.8 221.3 42.2 217.9 37.8 219.3 37.8"/>
	<defs>
		<rect id="eh" x=".7" y=".6" width="266.8" height="58.5"/>
	</defs>
	<clipPath id="eg">
		<use xlink:href="#eh"/>
	</clipPath>
	<polygon class="st101" points="222 41.3 224.6 37.8 226 37.8 222.6 42.2 222.6 44.8 221.3 44.8 221.3 42.2 217.9 37.8 219.3 37.8"/>
	<defs>
		<rect id="ef" x=".7" y=".6" width="266.8" height="58.5"/>
	</defs>
	<clipPath id="ee">
		<use xlink:href="#ef"/>
	</clipPath>
	<path class="st102" d="m231 37.7c3.3 0 3.7 1.9 3.7 3.5 0 2-0.4 3.9-3.7 3.9s-3.7-1.9-3.7-3.9c-0.1-1.6 0.3-3.5 3.7-3.5m0 0.6c-1.9 0-2.4 1.3-2.4 2.8 0 2 0.3 3.1 2.4 3.1s2.4-1.1 2.4-3.1c0-1.4-0.4-2.8-2.4-2.8"/>
	<defs>
		<rect id="ed" x=".7" y=".6" width="266.8" height="58.5"/>
	</defs>
	<clipPath id="ec">
		<use xlink:href="#ed"/>
	</clipPath>
	<path class="st103" d="m231 37.7c3.3 0 3.7 1.9 3.7 3.5 0 2-0.4 3.9-3.7 3.9s-3.7-1.9-3.7-3.9c-0.1-1.6 0.3-3.5 3.7-3.5zm0 0.6c-1.9 0-2.4 1.3-2.4 2.8 0 2 0.3 3.1 2.4 3.1s2.4-1.1 2.4-3.1c0-1.4-0.4-2.8-2.4-2.8z"/>
	<defs>
		<rect id="eb" x=".7" y=".6" width="266.8" height="58.5"/>
	</defs>
	<clipPath id="dz">
		<use xlink:href="#eb"/>
	</clipPath>
	<path class="st104" d="m242.6 37.8h1.3v7.1h-2.1l-3.2-5.7c-0.2-0.3-0.3-0.6-0.4-1.1v6.7h-1.3v-7.1h2l3.2 5.8 0.4 0.8v-6.5h0.1z"/>
	<defs>
		<rect id="dy" x=".7" y=".6" width="266.8" height="58.5"/>
	</defs>
	<clipPath id="dx">
		<use xlink:href="#dy"/>
	</clipPath>
	<path class="st105" d="m242.6 37.8h1.3v7.1h-2.1l-3.2-5.7c-0.2-0.3-0.3-0.6-0.4-1.1v6.7h-1.3v-7.1h2l3.2 5.8 0.4 0.8v-6.5h0.1z"/>
	<defs>
		<rect id="dw" x=".7" y=".6" width="266.8" height="58.5"/>
	</defs>
	<clipPath id="dv">
		<use xlink:href="#dw"/>
	</clipPath>
	<path class="st106" d="m246.4 44.8v-7.1h3.1c3.6 0 4 1.8 3.9 3.5s-0.6 3.5-3.7 3.5l-3.3 0.1zm1.3-0.6h2c1.9 0 2.6-0.9 2.5-3-0.1-1.6-0.5-2.7-2.5-2.7h-2v5.7z"/>
	<defs>
		<rect id="du" x=".7" y=".6" width="266.8" height="58.5"/>
	</defs>
	<clipPath id="dt">
		<use xlink:href="#du"/>
	</clipPath>
	<path class="st107" d="m246.4 44.8v-7.1h3.1c3.6 0 4 1.8 3.9 3.5s-0.6 3.5-3.7 3.5l-3.3 0.1zm1.3-0.6h2c1.9 0 2.6-0.9 2.5-3-0.1-1.6-0.5-2.7-2.5-2.7h-2v5.7z"/>
	<defs>
		<rect id="ds" x=".7" y=".6" width="266.8" height="58.5"/>
	</defs>
	<clipPath id="dr">
		<use xlink:href="#ds"/>
	</clipPath>
	<path class="st108" d="m174 57.7c-0.6 0.4-1.4 0.5-2.1 0.5-1.8 0-3-1.2-3-3s1.3-3 3-3c0.7 0 1.5 0.2 2 0.7l-0.5 0.5c-0.4-0.4-1-0.6-1.5-0.6-1.3 0-2.3 1-2.3 2.3s0.9 2.3 2.3 2.3c0.5 0 1-0.1 1.4-0.3v-1.7h-1.3v-0.6h2v2.9z"/>
	<defs>
		<rect id="dq" x=".7" y=".6" width="266.8" height="58.5"/>
	</defs>
	<clipPath id="do">
		<use xlink:href="#dq"/>
	</clipPath>
	<path class="st109" d="m175.3 55.2v-0.9h0.6v0.6c0.2-0.4 0.6-0.7 1.2-0.7h0.3v0.6h-0.3c-0.8 0-1.1 0.5-1.1 1.4v1.8h-0.6l-0.1-2.8z"/>
	<defs>
		<rect id="dn" x=".7" y=".6" width="266.8" height="58.5"/>
	</defs>
	<clipPath id="dm">
		<use xlink:href="#dn"/>
	</clipPath>
	<path class="st110" d="m181.3 57.3c-0.4 0.6-1 0.8-1.7 0.8-1.2 0-1.9-0.9-1.9-2 0-1.2 0.8-2 1.9-2s1.8 0.7 1.8 2v0.2h-3c0 0.6 0.5 1.2 1.2 1.2 0.5 0 0.9-0.2 1.2-0.6l0.5 0.4zm-0.5-1.5c0-0.6-0.4-1.1-1.1-1.1s-1.1 0.4-1.2 1.1h2.3z"/>
	<defs>
		<rect id="dl" x=".7" y=".6" width="266.8" height="58.5"/>
	</defs>
	<clipPath id="dk">
		<use xlink:href="#dl"/>
	</clipPath>
	<path class="st111" d="m182.4 55.2v-0.9h0.6v0.6c0.2-0.4 0.6-0.7 1.2-0.7 1 0 1.4 0.6 1.4 1.5v2.3h-0.6v-2.2c0-0.6-0.3-1-0.9-1-0.8 0-1.2 0.6-1.2 1.4v1.8h-0.6v-2.8h0.1z"/>
	<defs>
		<rect id="dj" x=".7" y=".6" width="266.8" height="58.5"/>
	</defs>
	<clipPath id="di">
		<use xlink:href="#dj"/>
	</clipPath>
	<path class="st112" d="m186.8 54.8c0.4-0.4 0.9-0.6 1.5-0.6 1.1 0 1.6 0.5 1.6 1.6v1.6c0 0.2 0 0.5 0.1 0.6h-0.6v-0.6c-0.2 0.4-0.7 0.7-1.2 0.7-0.8 0-1.4-0.4-1.4-1.1 0-1.2 1.4-1.3 2.3-1.3h0.2v-0.1c0-0.5-0.3-0.8-0.9-0.8-0.4 0-0.8 0.1-1.1 0.4l-0.5-0.4zm1.8 1.4c-0.8 0-1.3 0.2-1.3 0.7s0.4 0.6 0.8 0.6c0.7 0 1.1-0.5 1.1-1.1v-0.2h-0.6z"/>
	<defs>
		<rect id="dh" x=".7" y=".6" width="266.8" height="58.5"/>
	</defs>
	<clipPath id="dg">
		<use xlink:href="#dh"/>
	</clipPath>
	<path class="st113" d="m194 57.4c-0.2 0.4-0.8 0.8-1.4 0.8-1 0-1.9-0.8-1.9-2 0-1.1 0.8-2 2-2 0.5 0 1 0.2 1.3 0.6v-2.8h0.6v6h-0.6v-0.6zm-1.3-2.6c-0.8 0-1.3 0.6-1.3 1.4s0.5 1.4 1.3 1.4 1.3-0.6 1.3-1.4-0.5-1.4-1.3-1.4"/>
	<defs>
		<rect id="df" x=".7" y=".6" width="266.8" height="58.5"/>
	</defs>
	<clipPath id="dd">
		<use xlink:href="#df"/>
	</clipPath>
	<path class="st114" d="m195.8 54.8c0.4-0.4 0.9-0.6 1.5-0.6 1.1 0 1.6 0.5 1.6 1.6v1.6c0 0.2 0 0.5 0.1 0.6h-0.6v-0.6c-0.2 0.4-0.7 0.7-1.2 0.7-0.8 0-1.4-0.4-1.4-1.1 0-1.2 1.4-1.3 2.3-1.3h0.2v-0.1c0-0.5-0.3-0.8-0.9-0.8-0.4 0-0.8 0.1-1.1 0.4l-0.5-0.4zm1.8 1.4c-0.8 0-1.3 0.2-1.3 0.7s0.4 0.6 0.8 0.6c0.7 0 1.1-0.5 1.1-1.1v-0.2h-0.6z"/>
	<defs>
		<rect id="dc" x=".7" y=".6" width="266.8" height="58.5"/>
	</defs>
	<clipPath id="db">
		<use xlink:href="#dc"/>
	</clipPath>
	<polygon class="st115" points="200.4 59.2 199.8 59.2 200.3 57.2 201 57.2"/>
	<defs>
		<rect id="da" x=".7" y=".6" width="266.8" height="58.5"/>
	</defs>
	<clipPath id="cz">
		<use xlink:href="#da"/>
	</clipPath>
	<polygon class="st116" points="203.8 52.4 204.6 52.4 205.9 57.2 205.9 57.2 207.3 52.4 208 52.4 209.4 57.2 209.4 57.2 210.7 52.4 211.4 52.4 209.7 58.1 209 58.1 207.6 53.2 207.6 53.2 206.2 58.1 205.5 58.1"/>
	<defs>
		<rect id="cy" x=".7" y=".6" width="266.8" height="58.5"/>
	</defs>
	<clipPath id="cx">
		<use xlink:href="#cy"/>
	</clipPath>
	<path class="st117" d="m215 57.3c-0.4 0.6-1 0.8-1.7 0.8-1.2 0-1.9-0.9-1.9-2 0-1.2 0.8-2 1.9-2s1.8 0.7 1.8 2v0.2h-3c0 0.6 0.5 1.2 1.2 1.2 0.5 0 0.9-0.2 1.2-0.6l0.5 0.4zm-0.5-1.5c0-0.6-0.4-1.1-1.1-1.1s-1.1 0.4-1.2 1.1h2.3z"/>
	<defs>
		<rect id="cw" x=".7" y=".6" width="266.8" height="58.5"/>
	</defs>
	<clipPath id="cv">
		<use xlink:href="#cw"/>
	</clipPath>
	<path class="st118" d="m216.2 57.1c0.2 0.3 0.5 0.5 1 0.5 0.4 0 0.8-0.2 0.8-0.6s-0.4-0.5-0.8-0.6c-0.7-0.2-1.3-0.3-1.3-1.1 0-0.7 0.7-1.1 1.4-1.1 0.5 0 1 0.2 1.3 0.7l-0.6 0.4c-0.2-0.3-0.4-0.4-0.8-0.4-0.3 0-0.7 0.2-0.7 0.5s0.4 0.4 0.9 0.5c0.7 0.1 1.2 0.4 1.2 1.1 0 0.8-0.7 1.2-1.5 1.2-0.6 0-1.1-0.2-1.5-0.7l0.6-0.4z"/>
	<defs>
		<rect id="cu" x=".7" y=".6" width="266.8" height="58.5"/>
	</defs>
	<clipPath id="cs">
		<use xlink:href="#cu"/>
	</clipPath>
	<path class="st119" d="m221.5 54.8h-1.1v1.9c0 0.5 0 0.9 0.6 0.9 0.2 0 0.4 0 0.5-0.1v0.6c-0.2 0.1-0.5 0.1-0.7 0.1-0.9 0-1-0.5-1-1.2v-2h-0.8v-0.5h0.8v-1.3h0.6v1.1h1.1v0.5z"/>
	<defs>
		<rect id="cr" x=".7" y=".6" width="266.8" height="58.5"/>
	</defs>
	<clipPath id="cq">
		<use xlink:href="#cr"/>
	</clipPath>
	<rect class="st120" x="224.6" y="52.4" width=".7" height="5.6"/>
	<defs>
		<rect id="cp" x=".7" y=".6" width="266.8" height="58.5"/>
	</defs>
	<clipPath id="co">
		<use xlink:href="#cp"/>
	</clipPath>
	<path class="st121" d="m226.6 55.2v-0.9h0.6v0.6c0.2-0.4 0.6-0.7 1.2-0.7 1 0 1.4 0.6 1.4 1.5v2.3h-0.6v-2.2c0-0.6-0.3-1-0.9-1-0.8 0-1.2 0.6-1.2 1.4v1.8h-0.6l0.1-2.8z"/>
	<defs>
		<rect id="cn" x=".7" y=".6" width="266.8" height="58.5"/>
	</defs>
	<clipPath id="cm">
		<use xlink:href="#cn"/>
	</clipPath>
	<path class="st122" d="m234.1 57.4c-0.2 0.4-0.8 0.8-1.4 0.8-1 0-1.9-0.8-1.9-2 0-1.1 0.8-2 2-2 0.5 0 1 0.2 1.3 0.6v-2.8h0.6v6h-0.6v-0.6zm-1.3-2.6c-0.8 0-1.3 0.6-1.3 1.4s0.5 1.4 1.3 1.4 1.3-0.6 1.3-1.4-0.5-1.4-1.3-1.4"/>
	<defs>
		<rect id="cl" x=".7" y=".6" width="266.8" height="58.5"/>
	</defs>
	<clipPath id="ck">
		<use xlink:href="#cl"/>
	</clipPath>
	<path class="st123" d="m236.2 52.4c0.3 0 0.5 0.2 0.5 0.5s-0.2 0.5-0.5 0.5-0.5-0.2-0.5-0.5c0.1-0.3 0.3-0.5 0.5-0.5m-0.3 1.9h0.6v3.7h-0.6v-3.7z"/>
	<defs>
		<rect id="cj" x=".7" y=".6" width="266.8" height="58.5"/>
	</defs>
	<clipPath id="ch">
		<use xlink:href="#cj"/>
	</clipPath>
	<path class="st124" d="m241.1 57.3c-0.4 0.6-1 0.8-1.7 0.8-1.2 0-1.9-0.9-1.9-2 0-1.2 0.8-2 1.9-2s1.8 0.7 1.8 2v0.2h-3c0 0.6 0.5 1.2 1.2 1.2 0.5 0 0.9-0.2 1.2-0.6l0.5 0.4zm-0.5-1.5c0-0.6-0.4-1.1-1.1-1.1s-1.1 0.4-1.2 1.1h2.3z"/>
	<defs>
		<rect id="cg" x=".7" y=".6" width="266.8" height="58.5"/>
	</defs>
	<clipPath id="cf">
		<use xlink:href="#cg"/>
	</clipPath>
	<path class="st125" d="m242.3 57.1c0.2 0.3 0.5 0.5 1 0.5 0.4 0 0.8-0.2 0.8-0.6s-0.4-0.5-0.8-0.6c-0.7-0.2-1.3-0.3-1.3-1.1 0-0.7 0.7-1.1 1.4-1.1 0.5 0 1 0.2 1.3 0.7l-0.5 0.3c-0.2-0.3-0.4-0.4-0.8-0.4-0.3 0-0.7 0.2-0.7 0.5s0.4 0.4 0.9 0.5c0.7 0.1 1.2 0.4 1.2 1.1 0 0.8-0.7 1.2-1.5 1.2-0.6 0-1.1-0.2-1.5-0.7l0.5-0.3z"/>
</svg>
